<!-- Generated by IcoMoon.io -->
<svg version="1.1" xmlns="http://www.w3.org/2000/svg" width="64" height="64" viewBox="0 0 64 64">
<title>icon-fb</title>
<path d="M32 0c-17.674 0-32 14.326-32 32s14.326 32 32 32c17.674 0 32-14.326 32-32s-14.326-32-32-32zM32 59c-14.912 0-27-12.088-27-27s12.088-27 27-27 27 12.088 27 27-12.088 27-27 27z"></path>
<path d="M39.594 27.102h-5.566v-4.063c0-1.246 1.289-1.535 1.891-1.535 0.598 0 3.596 0 3.596 0v-5.482l-4.121-0.021c-5.623 0-6.906 4.088-6.906 6.709v4.393h-4.080v5.648h4.080c0 7.252 0 15.25 0 15.25h5.541c0 0 0-8.080 0-15.25h4.707l0.859-5.648z"></path>
</svg>
