<!-- Generated by IcoMoon.io -->
<svg version="1.1" xmlns="http://www.w3.org/2000/svg" width="64" height="64" viewBox="0 0 64 64">
<title>icon-whatsapp</title>
<path d="M0.151 64l4.499-16.435c-2.776-4.811-4.235-10.264-4.232-15.856 0.008-17.483 14.235-31.709 31.715-31.709 8.483 0.003 16.445 3.307 22.435 9.301 5.987 5.995 9.283 13.963 9.28 22.437-0.008 17.485-14.235 31.712-31.715 31.712-5.307-0.003-10.536-1.333-15.168-3.861l-16.813 4.411zM17.743 53.848c4.469 2.653 8.736 4.243 14.379 4.245 14.528 0 26.363-11.824 26.371-26.36 0.005-14.565-11.773-26.373-26.349-26.379-14.539 0-26.365 11.824-26.371 26.357-0.003 5.933 1.736 10.376 4.656 15.024l-2.664 9.728 9.979-2.616zM48.108 39.277c-0.197-0.331-0.725-0.528-1.52-0.925-0.792-0.397-4.688-2.315-5.416-2.579-0.725-0.264-1.253-0.397-1.784 0.397-0.528 0.792-2.048 2.579-2.509 3.107s-0.925 0.595-1.717 0.197c-0.792-0.397-3.347-1.232-6.373-3.933-2.355-2.101-3.947-4.696-4.408-5.491-0.461-0.792-0.048-1.221 0.347-1.616 0.357-0.355 0.792-0.925 1.189-1.389 0.403-0.459 0.533-0.789 0.8-1.32 0.264-0.528 0.133-0.992-0.067-1.389-0.2-0.395-1.784-4.296-2.443-5.883-0.645-1.544-1.299-1.336-1.784-1.36l-1.52-0.027c-0.528 0-1.387 0.197-2.112 0.992s-2.773 2.709-2.773 6.611 2.84 7.669 3.235 8.197c0.397 0.528 5.587 8.533 13.536 11.965 1.891 0.816 3.368 1.304 4.517 1.669 1.899 0.603 3.627 0.517 4.992 0.315 1.523-0.227 4.688-1.917 5.349-3.768 0.661-1.853 0.661-3.44 0.461-3.771z"></path>
</svg>
