<!-- Generated by IcoMoon.io -->
<svg version="1.1" xmlns="http://www.w3.org/2000/svg" width="64" height="64" viewBox="0 0 64 64">
<title>icon-vk2</title>
<path d="M38.867 41.448c2.289-0.74 5.219 4.884 8.338 7.036 2.341 1.63 4.135 1.278 4.135 1.278l8.315-0.12s4.345-0.268 2.291-3.72c-0.17-0.287-1.204-2.559-6.189-7.235-5.212-4.891-4.506-4.099 1.769-12.554 3.823-5.154 5.353-8.303 4.874-9.643-0.46-1.29-3.268-0.955-3.268-0.955l-9.368 0.065c-0.912 0.002-1.685 0.285-2.037 1.233-0.007 0.010-1.487 3.988-3.459 7.371-4.168 7.156-5.832 7.536-6.521 7.089-1.582-1.037-1.183-4.158-1.183-6.378 0-6.936 1.034-9.828-2.025-10.575-1.022-0.249-1.769-0.412-4.376-0.436-3.332-0.050-6.162 0-7.766 0.788-1.065 0.534-1.882 1.705-1.386 1.772 0.622 0.084 2.018 0.383 2.765 1.403 0.96 1.322 0.931 4.283 0.931 4.283s0.548 8.166-1.293 9.179c-1.264 0.694-2.993-0.723-6.71-7.22-1.898-3.323-3.332-6.995-3.332-6.995s-0.278-0.682-0.78-1.056c-0.598-0.443-1.436-0.584-1.436-0.584l-8.892 0.057s-1.336 0.038-1.827 0.627c-0.436 0.522-0.036 1.599-0.036 1.599s6.964 16.473 14.85 24.771c7.23 7.618 15.446 7.113 15.446 7.113h3.723s1.123-0.129 1.697-0.747c0.536-0.575 0.512-1.654 0.512-1.654s-0.074-5.049 2.238-5.791z"></path>
</svg>
