<svg xmlns="http://www.w3.org/2000/svg" viewBox="0 0 133.359 143.959"><path d="M43.476 140.366c0-.018.069-.087.153-.154.14-.109.142-.106.033.034-.114.146-.186.192-.186.12zm-6.402-1.228c0-.018.069-.087.153-.153.14-.11.142-.106.033.033-.114.146-.186.192-.186.12zm.789-.877c0-.018.069-.087.153-.153.14-.11.142-.106.033.033-.114.146-.186.192-.186.12zm-5.694-.72c.004-.102.025-.122.053-.053.026.064.022.14-.007.169-.029.029-.05-.023-.046-.116zm6.483-.157c0-.018.07-.087.154-.153.139-.11.142-.106.033.033-.115.146-.187.192-.187.12zm8.507-1.228c0-.018.07-.087.154-.153.139-.11.142-.106.033.033-.115.146-.187.192-.187.12zm.79-.877c0-.018.068-.087.153-.153.139-.11.142-.106.033.033-.115.146-.187.192-.187.12zm-6.841-.614c0-.018.069-.087.153-.153.14-.11.142-.106.033.033-.114.146-.186.193-.186.12zm.789-.877c0-.018.07-.087.154-.153.139-.11.142-.106.033.033-.115.146-.187.193-.187.12zm2.456-2.718c0-.019.069-.088.153-.154.14-.109.142-.106.033.033-.114.146-.186.193-.186.12zm.789-.877c0-.019.069-.088.153-.154.14-.109.143-.106.034.033-.115.146-.187.193-.187.12zm2.456-2.72c0-.017.069-.086.153-.153.14-.109.142-.106.033.034-.114.146-.186.192-.186.12zm18.793-.557c.377-.017.968-.017 1.316 0 .347.016.04.03-.684.03-.723 0-1.008-.014-.632-.03zm-4.256-.085a.952.952 0 0 1 .35.002c.085.022-.005.04-.198.038-.192 0-.261-.019-.152-.04zm9.472 0a.952.952 0 0 1 .35.002c.084.022-.005.04-.198.038-.193 0-.261-.019-.152-.04zm-11.532-.086a.505.505 0 0 1 .263.003c.06.024-.01.042-.155.04-.145-.002-.194-.021-.108-.044zm13.681 0a.505.505 0 0 1 .263.003c.06.024-.01.042-.155.04-.145-.002-.193-.021-.108-.044zm-15.218-.085a.339.339 0 0 1 .22 0c.06.024.01.044-.11.044s-.17-.02-.11-.044zm16.751 0a.339.339 0 0 1 .22 0c.06.024.01.044-.11.044s-.17-.02-.11-.044zm-26.902-.063c0-.018.069-.087.153-.154.14-.109.143-.106.033.034-.114.146-.186.192-.186.12zm8.836-.025a.339.339 0 0 1 .219 0c.06.024.011.044-.11.044-.12 0-.17-.02-.11-.044zm19.475-.002c.063-.025.139-.022.168.007.029.029-.023.05-.115.046-.102-.004-.123-.025-.053-.053zm-20.61-.088c.063-.025.14-.022.168.007.03.03-.022.05-.115.046-.102-.004-.123-.025-.053-.053zm21.75 0c.063-.025.139-.022.168.007.03.03-.023.05-.115.046-.102-.004-.123-.025-.053-.053zm1.052-.088c.064-.025.14-.022.168.007.03.03-.022.05-.115.047-.102-.004-.123-.025-.053-.053zm.965-.087c.063-.026.139-.022.168.007.03.029-.023.05-.115.046-.102-.004-.123-.025-.053-.053zm-47.657-2.747c0-.796.013-1.121.03-.723.016.398.016 1.049 0 1.447-.017.398-.03.072-.03-.724zm18.645.318c0-.018.069-.087.153-.153.14-.11.142-.106.033.033-.114.146-.186.192-.186.12zm.789-.877c0-.018.069-.087.153-.154.14-.109.143-.105.033.034-.114.146-.186.192-.186.12zm.79-.877c0-.018.068-.087.153-.154.139-.109.142-.105.033.034-.115.146-.187.192-.187.12zm2.455-2.719c0-.018.069-.087.153-.153.14-.11.142-.106.033.033-.114.146-.186.192-.186.12zm.79-.877c0-.018.068-.087.153-.153.139-.11.142-.106.033.033-.115.146-.187.192-.187.12zm6.862-2.134c.132-.02.35-.02.482 0 .133.02.024.036-.241.036s-.374-.016-.241-.036zm5.788 0c.133-.02.35-.02.482 0 .133.02.024.036-.24.036-.266 0-.375-.016-.242-.036zm-8.155-.086a.505.505 0 0 1 .263.003c.06.024-.01.042-.155.04-.144-.002-.193-.021-.108-.043zm10.875 0a.505.505 0 0 1 .263.003c.06.024-.01.042-.155.04-.144-.002-.193-.021-.108-.043zm-12.499-.085a.339.339 0 0 1 .22 0c.06.024.01.044-.11.044s-.17-.02-.11-.044zm14.208 0a.339.339 0 0 1 .219 0c.06.024.011.044-.11.044-.12 0-.17-.02-.11-.044zm1.408-.09c.064-.025.14-.022.169.008.029.029-.023.05-.116.046-.102-.004-.123-.025-.053-.053zm1.14-.087c.064-.025.14-.022.169.007.029.029-.023.05-.115.046-.103-.004-.123-.025-.053-.053zm-60.157-3.163c-.109-.14-.106-.142.033-.033.085.066.154.135.154.153 0 .072-.072.026-.187-.12zm104.331-.9c.189-.192.363-.35.387-.35.024 0-.11.158-.299.35-.188.194-.362.352-.386.352-.024 0 .11-.158.298-.351zm-106.477-1.249l-.167-.197.198.167c.108.092.197.18.197.197 0 .07-.07.019-.228-.167zm8.732-6.709l-.567-.592.592.567c.55.528.632.617.567.617-.013 0-.28-.266-.592-.592zm90.29.066c.287-.29.541-.526.565-.526.024 0-.19.236-.477.526-.286.29-.54.526-.564.526-.024 0 .19-.237.477-.526zM95.22 97.655c0-.018.07-.087.154-.153.139-.11.142-.106.033.033-.115.146-.187.193-.187.12zm4.837-8.21c0-.12.02-.17.045-.11a.339.339 0 0 1 0 .22c-.025.06-.045.01-.045-.11zm-.007-.84c.004-.103.025-.124.053-.054.026.064.023.14-.007.168-.029.03-.05-.022-.046-.115zm-45.096-5.19c-.109-.139-.106-.142.033-.033.085.067.154.136.154.154 0 .072-.072.026-.187-.12zm-2.446-2.367l-1.007-1.03 1.03 1.006c.958.936 1.071 1.054 1.008 1.054-.013 0-.477-.464-1.03-1.03zm21.927-.68c.113-.12.226-.22.25-.22.024 0-.049.1-.162.22-.114.12-.226.22-.25.22-.024 0 .049-.1.162-.22zm-24.345-1.82l-.167-.197.197.167c.185.157.237.227.167.227-.017 0-.105-.088-.197-.197zM.422 77.905c.004-.102.025-.123.053-.053.025.063.022.139-.007.168-.03.03-.05-.023-.046-.115zm132.164 0c.004-.102.025-.123.053-.053.026.063.023.139-.007.168-.029.03-.05-.023-.046-.115zm-10.085-.439c.004-.102.025-.122.053-.052.025.063.022.138-.007.168-.03.029-.05-.023-.046-.116zm10.173-.526c.004-.102.025-.123.053-.053.025.064.022.14-.007.168-.029.03-.05-.022-.046-.115zm-10.085-.35c.004-.103.025-.123.053-.053.025.063.022.138-.007.168-.03.029-.05-.023-.046-.116zM.246 75.8c.004-.102.025-.123.053-.053.025.064.022.14-.007.168-.029.03-.05-.022-.046-.115zm10.261-.088c.004-.102.025-.122.053-.053.025.064.022.14-.007.169-.029.029-.05-.023-.046-.116zm122.343-.877c.004-.102.025-.122.053-.053.025.064.022.14-.007.169-.03.029-.05-.023-.047-.116zM10.42 74.66c.004-.102.024-.123.052-.053.026.063.023.139-.006.168-.03.03-.05-.022-.047-.115zm48.655-.015c-.109-.139-.106-.142.033-.033.085.067.154.136.154.154 0 .072-.072.026-.187-.12zm-58.917-.16c.005-.102.025-.123.053-.053.026.063.023.139-.006.168-.03.029-.05-.023-.047-.115zm132.786-.826c0-.12.02-.17.044-.11a.339.339 0 0 1 0 .22c-.024.06-.044.01-.044-.11zM10.34 73.396c0-.12.02-.17.044-.11a.338.338 0 0 1 0 .22c-.024.06-.044.01-.044-.11zM.08 72.913c.002-.144.021-.193.044-.108a.502.502 0 0 1-.004.264c-.024.059-.042-.01-.04-.156zm122.865-.394c0-.12.02-.17.045-.11a.339.339 0 0 1 0 .22c-.025.06-.045.01-.045-.11zm10.086-.176c0-.12.02-.17.044-.11a.339.339 0 0 1 0 .22c-.024.06-.044.01-.044-.11zM10.257 71.73c0-.168.018-.237.04-.153a.72.72 0 0 1 0 .307c-.022.084-.04.015-.04-.154zm112.77-.49c.004-.101.025-.122.053-.052.025.063.022.139-.007.168-.029.029-.05-.023-.046-.115zm10.096-.343c.002-.144.021-.193.044-.108a.505.505 0 0 1-.003.263c-.024.06-.043-.01-.04-.155zM0 70.677c0-.217.017-.306.038-.197.02.108.02.286 0 .394-.02.109-.038.02-.038-.197zm123.122-.877c0-.12.02-.17.044-.11a.339.339 0 0 1 0 .22c-.024.06-.044.01-.044-.11zm-112.946-.702c0-.265.016-.373.036-.24.02.132.02.349 0 .482-.02.132-.036.024-.036-.242zm123.035.044c.002-.144.021-.193.043-.108a.505.505 0 0 1-.003.263c-.024.06-.042-.01-.04-.155zm-9.995-1.096c0-.169.018-.238.04-.153a.719.719 0 0 1 0 .306c-.022.085-.04.016-.04-.153zm10.09-1.228c0-.217.016-.306.037-.197.021.108.021.286 0 .394-.02.109-.038.02-.038-.197zm-9.998-1.271c.001-.242.018-.33.038-.197.02.134.02.331 0 .439-.022.108-.038-.001-.037-.242zm-25-2.675c0-.17.019-.238.041-.154a.719.719 0 0 1 0 .307c-.022.085-.04.015-.04-.153zm-1.756-.132c.001-.145.021-.193.043-.108a.502.502 0 0 1-.003.263c-.024.06-.042-.01-.04-.155zm-86.373-.526c0-.386.016-.533.035-.327.018.207.018.522 0 .702-.02.18-.035.01-.035-.375zm86.275-.797c.004-.102.025-.123.053-.053.025.064.022.14-.007.168-.03.03-.05-.022-.046-.115zm1.754 0c.004-.102.025-.123.053-.053.025.064.022.14-.007.168-.03.03-.05-.022-.046-.115zM.005 59.144c0-.337.016-.465.035-.283.02.182.019.459 0 .614-.02.156-.035.007-.035-.33zm80.64.423c.063-.026.138-.022.167.007.03.029-.022.05-.115.046-.102-.004-.123-.025-.053-.053zm-30.841-.291c0-.12.02-.17.044-.11a.338.338 0 0 1 0 .22c-.024.06-.044.01-.044-.11zm30.232.022c-.11-.14-.106-.142.033-.033.084.066.153.135.153.153 0 .072-.072.026-.186-.12zm9.76-.285c0-.12.02-.17.044-.11a.338.338 0 0 1 0 .22c-.025.06-.045.01-.045-.11zm-1.761-.051c.004-.103.025-.123.053-.053.025.063.022.139-.007.168-.03.029-.05-.023-.046-.115zm35.273-.344c.001-.241.018-.33.038-.196.02.133.02.33 0 .439-.022.107-.038-.002-.037-.243zm-43.51.044c0-.12.02-.17.044-.11a.338.338 0 0 1 0 .22c-.024.06-.044.01-.044-.11zm-30.001-.314c.004-.102.025-.123.053-.053.025.063.022.139-.007.168-.029.029-.05-.023-.046-.115zm-39.536-.3c0-.217.017-.306.038-.197.02.108.02.286 0 .394-.02.109-.038.02-.038-.197zm123.042-.658c.001-.193.02-.261.04-.152.021.109.02.267-.002.35-.022.085-.039-.005-.038-.198zm-10.09-1.052c.002-.145.021-.193.043-.108a.505.505 0 0 1-.003.263c-.024.06-.042-.01-.04-.155zM.084 56.03c0-.169.018-.238.04-.153a.72.72 0 0 1 0 .306c-.022.085-.04.016-.04-.153zm10.258-.22c.002-.144.021-.193.044-.107a.502.502 0 0 1-.004.263c-.024.06-.042-.01-.04-.155zm122.869-.525c.002-.145.021-.194.043-.108a.505.505 0 0 1-.003.263c-.024.06-.042-.01-.04-.155zm-10.09-.57c0-.121.02-.17.045-.11a.339.339 0 0 1 0 .22c-.024.06-.044.01-.044-.11zm-112.695-.527c0-.12.02-.17.045-.11a.338.338 0 0 1 0 .22c-.025.06-.045.01-.045-.11zm-10.26-.087c0-.121.02-.17.044-.11a.338.338 0 0 1 0 .22c-.025.06-.045.01-.045-.11zm132.947-.402c.004-.103.025-.123.053-.053.025.063.022.139-.007.168-.03.029-.05-.023-.046-.115zm-10.086-.263c.004-.103.025-.123.053-.053.025.063.022.138-.007.168-.029.029-.05-.023-.046-.115zm-112.52-.527c.004-.102.025-.123.053-.053.025.064.022.14-.007.168-.029.03-.05-.022-.046-.115zm-10.254-.3c0-.12.02-.17.044-.109a.338.338 0 0 1 0 .22c-.024.06-.044.01-.044-.11zm54.843-.438c.188-.193.362-.35.386-.35.025 0-.11.157-.298.35-.189.193-.363.351-.387.351-.024 0 .11-.158.299-.35zm67.843.212c.004-.102.025-.123.053-.053.026.063.023.14-.007.168-.029.03-.05-.022-.046-.115zm10.086 0c.004-.102.025-.123.053-.053.025.063.022.14-.007.168-.03.03-.05-.022-.046-.115zm-122.43-.614c.004-.102.025-.123.053-.053.025.064.022.14-.007.168-.03.03-.05-.022-.046-.115zm112.257-.35c.004-.103.025-.124.053-.054.025.064.022.14-.007.168-.03.03-.05-.022-.046-.115zM.334 51.331c.004-.102.025-.123.053-.053.025.063.022.139-.007.168-.03.029-.05-.023-.046-.115zm132.603 0c.004-.102.025-.123.053-.053.026.063.022.139-.007.168-.029.029-.05-.023-.046-.115zm-54.473-.892l-.303-.329.33.302c.305.282.368.356.301.356-.014 0-.162-.148-.328-.329zm44.3.102c.004-.102.025-.123.053-.053.025.064.022.14-.007.168-.03.03-.05-.022-.046-.115zM.422 50.192c.004-.103.025-.123.053-.053.025.063.022.139-.007.168-.03.029-.05-.023-.046-.115zm132.34-.79c.004-.102.025-.123.053-.053.025.064.022.14-.007.168-.03.03-.05-.022-.046-.115zM.509 49.227c.004-.102.025-.123.053-.053.026.063.022.139-.007.168-.029.03-.05-.023-.046-.115zm70.746-1.673a.338.338 0 0 1 .22 0c.06.024.01.044-.11.044-.121 0-.17-.02-.11-.044zm12.99-1.937c-.109-.14-.106-.143.033-.034.085.067.154.136.154.154 0 .072-.072.026-.187-.12zm4.298-3.947c-.11-.14-.106-.142.033-.033.146.114.192.186.12.186-.018 0-.087-.069-.153-.153zm-19.738-1.222c.063-.025.139-.022.168.007.029.03-.023.05-.115.046-.102-.004-.123-.025-.053-.053zm20.1-.949c-.36-.361-.634-.657-.61-.657.024 0 .338.296.697.657.36.362.634.658.61.658-.024 0-.338-.296-.697-.658zm-2.292.242c-.109-.14-.106-.143.033-.034.085.067.154.136.154.154 0 .072-.072.026-.187-.12zm-17.37-1.047c.064-.025.14-.022.168.007.03.03-.022.05-.115.046-.102-.004-.123-.025-.053-.053zm-.877-6.753c.064-.025.14-.022.168.007.03.03-.022.05-.115.046-.102-.004-.123-.025-.053-.053zm-1.54-.088a.72.72 0 0 1 .307 0c.084.022.015.04-.154.04-.168 0-.237-.018-.153-.04zm1.979-1.666c.063-.025.139-.022.168.007.029.03-.023.05-.115.046-.102-.004-.123-.025-.053-.053zm-1.234-.086a.338.338 0 0 1 .22 0c.06.025.01.044-.11.044s-.17-.02-.11-.044zm-46.634-6.728c0-.018.069-.087.153-.153.14-.11.142-.106.033.033-.114.146-.186.192-.186.12zm91.682-.427l-.167-.197.198.167c.185.157.237.227.167.227-.017 0-.106-.089-.198-.197zm-1.274-1.272c-.11-.139-.106-.142.033-.033.146.115.192.187.12.187-.018 0-.087-.07-.153-.154zM13.13 15.656c0-.019.07-.088.154-.154.139-.109.142-.106.033.033-.115.146-.187.193-.187.12zM77.4 10.63c.064-.026.14-.022.168.007.03.029-.022.05-.115.046-.102-.004-.123-.025-.053-.053zm-1.233-.086a.338.338 0 0 1 .22 0c.06.024.01.044-.11.044s-.17-.02-.11-.044zm-19.815-.09c.064-.025.14-.022.168.007.03.03-.022.05-.115.046-.102-.004-.123-.025-.053-.053zm18.412.002a.338.338 0 0 1 .22 0c.06.025.01.044-.11.044-.121 0-.17-.02-.11-.044zM57.66 10.37a.338.338 0 0 1 .22 0c.06.024.01.044-.11.044s-.17-.02-.11-.044zm15.129-.003a.72.72 0 0 1 .307 0c.084.022.015.04-.154.04-.169 0-.238-.018-.153-.04zm-13.505-.088a.502.502 0 0 1 .263.003c.06.024-.01.043-.155.04-.144-.001-.193-.02-.108-.043zm9.648-.004a5.68 5.68 0 0 1 .79 0c.203.02.015.034-.42.034-.434 0-.6-.016-.37-.034zm-7.238-.086c.157-.02.414-.02.57 0 .157.02.029.035-.284.035-.314 0-.442-.016-.286-.035zm4.605 0c.132-.02.35-.02.482 0 .133.02.024.037-.241.037s-.374-.017-.241-.037zM80.118.544c.063-.025.14-.022.168.007.03.03-.022.05-.115.046-.102-.004-.123-.025-.053-.053zM53.37.457c.064-.026.14-.023.168.006.03.03-.022.05-.115.047C53.32.505 53.3.485 53.37.457zm25.697 0c.063-.026.139-.023.168.006.029.03-.023.05-.115.047-.102-.005-.123-.025-.053-.053zM54.422.369c.063-.026.139-.022.168.007.029.029-.023.05-.115.046-.102-.004-.123-.025-.053-.053zm23.504 0c.063-.026.139-.022.168.007.029.029-.023.05-.115.046-.103-.004-.123-.025-.053-.053zM55.469.283a.338.338 0 0 1 .219 0c.06.024.01.044-.11.044s-.17-.02-.11-.044zm21.048 0a.338.338 0 0 1 .22 0c.06.024.01.044-.11.044-.121 0-.17-.02-.11-.044zM56.784.195a.338.338 0 0 1 .22 0c.06.025.01.044-.11.044s-.17-.02-.11-.044zM74.896.193a.502.502 0 0 1 .263.003c.06.024-.01.042-.155.04-.145-.002-.193-.021-.108-.043zM58.276.108a.338.338 0 0 1 .218 0c.06.024.011.044-.11.044-.12 0-.17-.02-.109-.044zM72.57.104c.109-.021.286-.021.395 0 .109.02.02.038-.197.038s-.306-.017-.198-.038zM60.293.016a.958.958 0 0 1 .351.002c.084.022-.005.039-.198.038-.193-.001-.262-.02-.153-.04zm8.289.001a.502.502 0 0 1 .263.003c.06.024-.01.043-.155.04-.145 0-.194-.02-.108-.043z" fill="#dcd4e5"/><path d="M14.833 112.576l-.167-.197.197.167c.109.092.198.18.198.197 0 .07-.07.018-.228-.167zm-1.538-1.535c-.109-.139-.106-.142.034-.033.146.115.192.187.12.187-.018 0-.087-.07-.154-.154zm9.121-6.314c-.109-.14-.106-.142.033-.033.147.114.193.186.12.186-.017 0-.087-.069-.153-.153zm88.852.12c0-.018.07-.087.154-.153.139-.11.142-.106.033.033-.115.146-.187.192-.187.12zm1.316-1.315c0-.019.069-.088.153-.154.14-.109.142-.106.033.033-.114.146-.186.193-.186.12zm-91.57-.208c-.11-.14-.107-.143.032-.034.146.115.193.187.12.187-.018 0-.087-.069-.153-.153zm72.89-4.364c.113-.12.225-.219.25-.219.024 0-.05.099-.163.22-.113.12-.225.219-.25.219-.024 0 .05-.099.163-.22zm1.052-1.052c.113-.12.226-.22.25-.22.024 0-.049.1-.162.22-.114.12-.226.22-.25.22-.024 0 .049-.1.162-.22zM54.69 83.152c-.109-.139-.106-.142.033-.033.085.067.154.136.154.154 0 .072-.072.026-.187-.12zm-4.297-4.297c-.11-.139-.106-.142.033-.033.084.066.153.135.153.153 0 .073-.072.026-.186-.12zm7.113-5.7l-.744-.768.768.744c.422.409.767.754.767.767 0 .064-.1-.03-.791-.743zm24.816-27.012l-.302-.33.329.303c.306.281.37.356.302.356-.014 0-.162-.148-.329-.33zm1.62-.833l-.168-.198.197.167c.186.157.238.228.168.228-.017 0-.106-.089-.198-.197zm-.745-.746l-.212-.241.241.213c.225.198.281.27.213.27-.016 0-.125-.11-.242-.242zm-36.4-11.927c-.109-.14-.106-.142.033-.033.146.114.193.186.12.186-.018 0-.087-.069-.153-.153zM13.394 15.392c0-.018.07-.087.154-.153.139-.11.142-.106.033.033-.115.146-.187.193-.187.12zm105.23-1.085c-.11-.139-.106-.142.033-.033.146.115.193.187.12.187-.018 0-.087-.07-.153-.154z" fill="#cfc3dc"/><path d="M32.204 131.147c0-3.425.01-4.839.024-3.142.013 1.697.013 4.499 0 6.227-.013 1.728-.024.34-.024-3.085zm30.544-4.316c.108-.02.286-.02.395 0 .108.021.02.038-.198.038-.217 0-.306-.017-.197-.038zm8.068 0c.109-.02.286-.02.395 0 .109.021.02.038-.197.038s-.306-.017-.198-.038zm-10.26-.084a.339.339 0 0 1 .219 0c.06.025.01.045-.11.045s-.17-.02-.11-.045zm12.674-.003a.505.505 0 0 1 .263.003c.06.024-.01.043-.155.04-.145-.001-.194-.02-.108-.043zm-14.34-.085a.339.339 0 0 1 .218 0c.06.025.011.045-.11.045-.12 0-.17-.02-.109-.045zm16.048 0a.339.339 0 0 1 .22 0c.06.025.01.045-.11.045s-.17-.02-.11-.045zm-17.359-.09c.063-.024.139-.021.168.008.03.03-.023.05-.115.046-.102-.004-.123-.025-.053-.053zm18.768 0c.063-.024.139-.021.168.008.03.03-.023.05-.115.046-.102-.004-.123-.025-.053-.053zm1.228-.087c.063-.025.139-.022.168.007.029.03-.023.05-.115.046-.102-.004-.123-.025-.053-.053zm1.052-.088c.064-.025.14-.022.168.007.03.03-.022.05-.115.047-.102-.004-.123-.025-.053-.053zm-16.844-10c.109-.02.286-.02.395 0 .108.022.02.039-.197.039-.218 0-.306-.017-.198-.038zm7.456 0a.952.952 0 0 1 .35.003c.084.022-.005.039-.198.038-.193-.001-.261-.02-.152-.04zm-9.56-.083a.339.339 0 0 1 .219 0c.06.024.01.044-.11.044s-.17-.02-.11-.044zm11.797-.003a.505.505 0 0 1 .263.003c.06.024-.01.042-.155.04-.145-.002-.194-.021-.108-.044zm-13.283-.087c.063-.025.139-.022.168.007.03.03-.023.05-.115.046-.102-.004-.123-.025-.053-.053zm14.904.002a.339.339 0 0 1 .219 0c.06.024.01.044-.11.044s-.17-.02-.11-.044zm1.408-.09c.064-.025.14-.022.168.007.03.03-.022.05-.115.047-.102-.004-.123-.025-.053-.053zm12.141-13.947c.133-.02.35-.02.483 0 .132.02.024.037-.241.037-.266 0-.374-.017-.242-.037zM100.06 89.05c.002-.144.021-.193.043-.108a.505.505 0 0 1-.003.263c-.024.06-.042-.01-.04-.155zm-28.63-7.56c.109-.02.286-.02.395 0 .108.02.02.038-.197.038s-.306-.017-.198-.038zM.422 77.642c.004-.102.025-.123.053-.053.025.063.022.139-.007.168-.03.03-.05-.023-.046-.115zm132.252-.965c.004-.102.025-.123.053-.053.025.064.022.14-.007.168-.029.03-.05-.022-.046-.115zm-122.167-.701c.004-.103.025-.123.053-.053.025.063.022.139-.007.168-.029.029-.05-.023-.046-.115zm-10.26-.527c.003-.102.024-.123.052-.053.025.064.022.14-.007.168-.029.03-.05-.022-.046-.115zm10.172-.526c.005-.102.025-.123.053-.053.026.063.023.14-.006.168-.03.03-.05-.022-.047-.115zm122.43-.35c.005-.103.026-.124.054-.054.025.064.022.14-.007.168-.03.03-.05-.022-.047-.115zm-51.2-.012c.133-.02.33-.02.438 0 .108.022-.001.038-.242.037-.241 0-.33-.017-.196-.037zM.165 74.097c0-.12.02-.17.045-.11a.338.338 0 0 1 0 .22c-.025.06-.045.01-.045-.11zm122.687-.139c.004-.102.025-.122.053-.053.025.064.022.14-.007.169-.03.029-.05-.023-.046-.116zm-112.52-.263c.004-.102.025-.123.053-.053.025.064.022.14-.007.168-.03.03-.05-.022-.046-.115zm122.605-.35c.004-.103.025-.123.053-.053.026.063.022.139-.007.168-.029.029-.05-.023-.046-.115zm-9.998-.527c.004-.102.025-.123.053-.053.026.064.023.14-.007.168-.029.03-.05-.022-.046-.115zM.081 72.388c.002-.146.021-.194.044-.109a.502.502 0 0 1-.004.263c-.024.06-.042-.01-.04-.155zm10.173-.176c.002-.145.022-.194.044-.108a.502.502 0 0 1-.003.263c-.024.06-.043-.01-.04-.155zm122.778-.22c0-.12.02-.17.044-.11a.339.339 0 0 1 0 .22c-.024.06-.044.011-.044-.11zm-10.005-.401c.004-.103.025-.123.053-.053.025.063.022.139-.007.168-.029.029-.05-.023-.046-.115zm10.093-1.09c0-.12.02-.17.044-.109a.339.339 0 0 1 0 .22c-.024.06-.044.01-.044-.11zM.002 69.889c0-.266.017-.374.037-.241.02.132.02.35 0 .482-.02.133-.037.024-.037-.241zm10.171.087c0-.217.017-.305.038-.197.021.109.021.286 0 .395-.02.108-.038.02-.038-.198zm112.942.212c.004-.102.025-.123.053-.053.025.064.022.14-.007.168-.03.03-.05-.022-.046-.115zm10.096-1.571c.002-.145.021-.193.043-.108a.505.505 0 0 1-.003.263c-.024.06-.042-.01-.04-.155zm-9.998-.088c.002-.144.021-.193.043-.108a.505.505 0 0 1-.003.263c-.024.06-.042-.01-.04-.155zm.092-2.192c.001-.193.02-.262.04-.153.021.11.02.267-.002.351-.022.084-.039-.005-.038-.198zm10.001-.263c.001-.241.018-.33.038-.196.02.133.02.33-.001.438-.02.108-.037-.001-.037-.242zm-35.823-.28c.063-.025.139-.022.168.007.029.03-.023.05-.115.047-.102-.005-.123-.025-.053-.053zm-.836-1.123c.001-.242.018-.33.038-.197.02.134.02.331-.001.439-.02.108-.037-.001-.037-.242zm1.662-1.272c0-.169.018-.238.04-.154a.719.719 0 0 1 0 .307c-.022.085-.04.016-.04-.153zm-1.76-1.053c0-.12.02-.17.044-.11a.338.338 0 0 1 0 .22c-.025.06-.045.011-.045-.11zm1.659-.577c.004-.102.025-.123.053-.053.025.063.022.139-.007.168-.03.03-.05-.022-.046-.115zm-10.06-.957c0-.483.014-.669.032-.414.018.255.018.65 0 .877-.018.228-.032.019-.032-.463zm-77.97.175c0-.338.016-.465.035-.283.02.182.02.458 0 .614-.02.156-.035.007-.035-.33zM.005 60.284c0-.337.016-.465.035-.283.02.182.019.459 0 .614-.02.156-.035.007-.035-.33zm89.79-.92c0-.121.02-.17.045-.11a.338.338 0 0 1 0 .22c-.025.06-.045.01-.045-.11zm-1.76-.665c.004-.103.025-.123.053-.053.025.063.022.139-.007.168-.03.029-.05-.023-.046-.115zm-8.244-.351c.004-.102.025-.123.053-.053.025.063.022.139-.007.168-.03.029-.05-.023-.046-.115zm53.515-.256c.001-.241.018-.33.038-.196.02.133.02.33 0 .438-.022.108-.038 0-.038-.242zm-10-.175c0-.193.018-.262.04-.153.02.11.02.267-.003.35-.022.085-.039-.005-.038-.197zm-41.849-.095c.004-.103.025-.123.053-.053.025.063.022.139-.007.168-.03.029-.05-.023-.046-.115zm-71.2-.476c0-.168.018-.237.04-.153a.72.72 0 0 1 0 .307c-.022.084-.04.015-.04-.154zM.084 56.645c0-.169.018-.238.04-.154a.72.72 0 0 1 0 .307c-.022.085-.04.016-.04-.153zm123.125-.79c0-.12.02-.17.045-.109a.339.339 0 0 1 0 .22c-.025.06-.045.01-.045-.11zm10.002-.131c.002-.145.021-.193.043-.108a.505.505 0 0 1-.003.263c-.024.06-.042-.01-.04-.155zm-122.872-.395c0-.12.02-.17.044-.11a.338.338 0 0 1 0 .22c-.024.06-.044.011-.044-.11zM.165 54.54c0-.12.02-.17.045-.11a.338.338 0 0 1 0 .22c-.025.06-.045.01-.045-.11zm122.95-.139c.004-.102.025-.123.053-.053.025.064.022.14-.007.168-.03.03-.05-.022-.046-.115zm10.005-.3c0-.12.02-.17.044-.11a.339.339 0 0 1 0 .22c-.024.06-.044.011-.044-.11zm-122.694-.263c0-.12.02-.17.045-.11a.338.338 0 0 1 0 .22c-.025.06-.045.011-.045-.11zm112.601-.665c.004-.102.025-.123.053-.053.025.064.022.14-.007.169-.029.029-.05-.023-.046-.116zM.253 52.961c0-.12.02-.17.044-.11a.338.338 0 0 1 0 .22c-.024.06-.044.011-.044-.11zm132.772-.226c.004-.102.025-.123.053-.053.025.063.022.139-.007.168-.03.03-.05-.023-.046-.115zm-122.518-.176c.004-.102.025-.122.053-.052.025.063.022.138-.007.168-.029.029-.05-.023-.046-.116zm112.432-.438c.004-.102.025-.123.053-.053.026.063.023.139-.007.168-.029.03-.05-.023-.046-.115zM.334 51.595c.004-.102.025-.123.053-.053.025.063.022.139-.007.168-.03.029-.05-.023-.046-.115zm132.603 0c.004-.102.025-.123.053-.053.026.063.022.139-.007.168-.029.029-.05-.023-.046-.115zm-61.852-2.29c.063-.025.139-.021.168.008.03.029-.023.05-.115.046-.102-.004-.123-.025-.053-.053zm-14.341-.51c0-.24.017-.329.037-.195.02.133.02.33 0 .438-.022.108-.038-.001-.037-.242zm13.4-.357c.004-.103.025-.123.053-.053.025.063.022.139-.007.168-.03.029-.05-.023-.046-.115zm.853-.886c.064-.026.14-.022.168.007.03.029-.022.05-.115.046-.102-.004-.123-.025-.053-.053zm-3.302-8.009c0-.12.02-.17.044-.11a.338.338 0 0 1 0 .22c-.024.06-.044.01-.044-.11zm-.341-7.69a.501.501 0 0 1 .263.003c.06.024-.01.042-.155.04-.145-.002-.193-.021-.108-.043zm1.188-1.666c.063-.025.139-.022.168.007.029.03-.023.05-.115.046-.103-.004-.123-.025-.053-.053zM67.09 30.1a.501.501 0 0 1 .263.003c.06.024-.01.042-.155.04-.145-.002-.194-.021-.108-.043zm10.66-19.47c.062-.025.138-.021.167.008.03.029-.022.05-.115.046-.102-.004-.123-.025-.053-.053zm-1.229-.087c.064-.025.14-.022.168.007.03.03-.022.05-.115.046-.102-.004-.123-.025-.053-.053zm-20.434-.088c.063-.025.14-.022.168.007.03.03-.022.05-.115.046-.102-.004-.123-.025-.053-.053zm19.026.002a.338.338 0 0 1 .219 0c.06.025.01.044-.11.044s-.17-.02-.11-.044zm-17.798-.09c.063-.025.139-.022.168.008.03.029-.023.05-.115.046-.102-.005-.123-.025-.053-.053zm16.09 0a.502.502 0 0 1 .262.003c.06.024-.01.042-.155.04-.145-.001-.193-.021-.108-.043zM58.8 10.28a.338.338 0 0 1 .22 0c.06.024.01.044-.11.044s-.17-.02-.11-.044zm11.577-.006c.157-.019.413-.019.57 0 .157.02.028.036-.285.036-.314 0-.442-.016-.285-.036zm-9.472-.086c.109-.02.286-.02.395 0 .108.021.02.038-.198.038-.217 0-.305-.017-.197-.038zm6.228 0a.957.957 0 0 1 .35.002c.085.022-.005.039-.198.038-.193 0-.261-.019-.152-.04zM80.82.632c.063-.025.139-.022.168.007.029.029-.023.05-.115.046C80.77.68 80.75.66 80.82.632zm-.965-.088c.063-.025.139-.022.168.007.03.03-.023.05-.115.046-.102-.004-.123-.025-.053-.053zM53.632.457c.064-.026.14-.023.169.006.029.03-.023.05-.116.047-.102-.005-.122-.025-.053-.053zm25.17 0c.064-.026.14-.023.169.006.029.03-.023.05-.115.047-.103-.005-.123-.025-.053-.053zM54.686.369c.063-.026.139-.022.168.007.03.029-.023.05-.115.046-.102-.004-.123-.025-.053-.053zm22.89 0c.063-.026.139-.022.168.007.029.029-.023.05-.115.046-.102-.004-.123-.025-.053-.053zM55.825.28c.063-.025.139-.022.168.007.03.03-.023.05-.115.046-.102-.004-.123-.025-.053-.053zm20.341.002a.338.338 0 0 1 .22 0c.06.024.01.044-.11.044s-.17-.02-.11-.044zM57.135.195a.338.338 0 0 1 .22 0c.06.025.01.044-.11.044s-.17-.02-.11-.044zM74.458.193a.502.502 0 0 1 .263.003c.06.024-.01.042-.155.04-.145-.002-.194-.021-.108-.043zM58.759.105a.502.502 0 0 1 .263.003c.06.024-.01.042-.155.04-.145-.001-.193-.02-.108-.043zM71.65.103c.133-.02.35-.02.483 0s.024.036-.241.036c-.266 0-.374-.016-.241-.036zM60.907.016c.109-.02.286-.02.395 0 .108.02.02.038-.198.038-.217 0-.305-.017-.197-.038zm7.017 0a.958.958 0 0 1 .351.002c.084.022-.005.039-.198.038-.193-.001-.262-.02-.153-.04z" fill="#bdaece"/><path d="M34.08 142.701c-.109-.139-.105-.142.034-.033.084.066.153.135.153.154 0 .072-.072.025-.187-.12zm8.124-1.074c.087-.097.178-.176.203-.176.024 0-.028.08-.115.176-.088.096-.179.175-.203.175-.024 0 .028-.079.115-.175zm.745-.746c.114-.12.226-.219.25-.219.024 0-.049.099-.162.22-.113.12-.226.219-.25.219-.024 0 .05-.099.162-.22zm2.631-11.127c0-.018.07-.087.154-.153.14-.11.142-.106.033.033-.115.146-.187.192-.187.12zm72.792-16.75c0-.019.07-.088.154-.154.139-.11.142-.106.033.033-.115.146-.187.192-.187.12zM14.05 111.786l-.523-.548.548.523c.51.486.588.573.523.573-.013 0-.26-.247-.548-.548zm106.252-.713c0-.018.07-.087.154-.154.139-.109.142-.106.033.034-.115.146-.187.192-.187.12zm-26.134-12.36c0-.015.128-.144.285-.285l.285-.258-.258.285c-.24.266-.312.326-.312.258zm4.29-13.37l-.212-.24.24.212c.134.117.242.226.242.242 0 .068-.07.012-.27-.213zm-44.159-2.586l-.167-.198.198.168c.185.157.237.227.167.227-.017 0-.106-.089-.198-.197zM50.79 79.25l-.167-.198.198.167c.185.157.237.228.167.228-.017 0-.106-.089-.198-.197zm-1.186-1.272c-.11-.139-.106-.142.033-.033.084.066.153.135.153.153 0 .073-.072.026-.186-.12zm8.816-3.903l-.167-.197.198.167c.108.092.197.18.197.197 0 .07-.07.019-.228-.167zm-1.888-1.885c-.11-.14-.106-.142.033-.033.084.066.153.135.153.153 0 .072-.072.026-.186-.12zm20.697-20.522c-.109-.14-.106-.142.033-.033.085.066.154.135.154.153 0 .072-.072.026-.187-.12zm5.613-5c-.109-.138-.106-.141.033-.032.085.066.154.135.154.153 0 .072-.072.026-.187-.12zm-.965-.964c-.109-.139-.106-.142.033-.033.085.066.154.135.154.154 0 .072-.072.025-.187-.12zm1.667-.79c-.11-.138-.106-.141.033-.032.146.114.192.186.12.186-.018 0-.087-.069-.153-.153zm4.13-4.209l-.48-.504.505.48c.277.263.504.49.504.504 0 .065-.084-.011-.53-.48zm-56.038-4.177c0-.018.07-.087.154-.153.139-.11.142-.106.033.033-.115.146-.187.192-.187.12zm.877-.877c0-.018.07-.087.154-.153.139-.11.142-.106.033.033-.115.146-.187.192-.187.12zm13.77-3.518c-.214-.218-.369-.395-.344-.395.024 0 .218.177.43.395.214.217.368.394.344.394-.024 0-.218-.177-.43-.394zm-24.557-9.648c.164-.168.317-.306.341-.306.024 0-.09.138-.253.306-.164.17-.318.307-.342.307-.024 0 .09-.138.254-.307zm98.306-6.774l-.213-.242.241.213c.133.117.241.225.241.241 0 .069-.07.013-.27-.212zM13.92 14.856c.113-.121.225-.22.25-.22.023 0-.05.099-.163.22-.113.12-.225.219-.25.219-.024 0 .05-.099.163-.22zm105.058-.198l-.212-.241.24.213c.134.117.242.225.242.24 0 .07-.07.014-.27-.212z" fill="#ac99c3"/><path d="M42.555 141.276c.087-.096.178-.175.202-.175.025 0-.027.079-.114.175-.088.097-.179.175-.203.175-.024 0 .027-.078.115-.175zm-4.868-2.752c0-.018.07-.087.154-.153.139-.11.142-.106.033.033-.115.146-.187.192-.187.12zm.79-.877c0-.018.069-.087.153-.153.14-.11.142-.106.033.033-.114.146-.186.192-.186.12zm8.857-1.754c0-.018.07-.087.154-.153.14-.11.142-.106.033.033-.114.146-.187.192-.187.12zm.79-.877c0-.018.069-.087.153-.153.14-.11.142-.106.033.033-.114.146-.186.192-.186.12zm-7.192-.087c0-.019.07-.088.154-.154.139-.109.142-.106.033.033-.115.146-.187.193-.187.12zm.79-.877c0-.019.069-.088.153-.154.14-.11.142-.106.033.033-.114.146-.186.193-.186.12zm2.455-2.72c0-.017.07-.087.154-.153.139-.109.142-.106.033.033-.115.146-.187.193-.187.12zm.79-.876c0-.018.069-.088.153-.154.14-.109.142-.106.033.033-.114.146-.186.193-.186.12zm2.455-2.719c0-.018.07-.087.154-.153.139-.11.142-.106.033.033-.115.146-.187.192-.187.12zm.79-.877c0-.018.069-.087.153-.153.14-.11.142-.106.033.033-.114.146-.187.192-.187.12zm15.369-.03c.133-.02.35-.02.482 0 .133.02.025.037-.24.037-.266 0-.375-.017-.242-.037zm6.402 0c.133-.02.35-.02.483 0 .132.02.024.037-.242.037-.265 0-.373-.017-.24-.037zm-8.944-.085a.505.505 0 0 1 .263.003c.06.024-.01.042-.155.04-.144-.002-.193-.021-.108-.044zm11.663 0a.719.719 0 0 1 .307 0c.084.022.015.04-.154.04-.168 0-.237-.018-.153-.04zm-13.417-.088a.505.505 0 0 1 .263.003c.06.024-.01.042-.155.04-.144-.002-.193-.021-.108-.044zm15.215.003a.339.339 0 0 1 .219 0c.06.024.011.044-.11.044-.12 0-.17-.02-.11-.044zm-16.57-.09c.063-.025.139-.022.168.007.03.03-.023.05-.115.046-.102-.004-.123-.025-.053-.053zm18.066 0c.063-.025.14-.022.168.007.03.03-.022.05-.115.046-.102-.004-.123-.025-.053-.053zm-19.294-.088c.063-.025.139-.022.168.007.03.03-.023.05-.115.047-.102-.004-.123-.025-.053-.053zm20.522 0c.063-.025.139-.022.168.007.03.03-.023.05-.115.047-.102-.004-.123-.025-.053-.053zm1.14-.087c.063-.026.139-.022.168.007.03.029-.022.05-.115.046-.102-.004-.123-.025-.053-.053zm1.93-.176c.063-.025.138-.022.168.007.029.03-.023.05-.116.046-.102-.004-.122-.025-.052-.053zm-43.266-6.736c0-3.714.01-5.221.024-3.348.013 1.872.013 4.911 0 6.753-.014 1.841-.024.309-.024-3.405zm11.973 6.5c0-.018.069-.087.153-.153.14-.11.142-.106.033.033-.114.146-.186.193-.186.12zm2.455-2.718c0-.019.07-.088.154-.154.139-.109.142-.106.033.033-.115.146-.187.193-.187.12zm.79-.877c0-.019.069-.088.153-.154.14-.109.142-.106.033.033-.114.146-.186.193-.186.12zm2.455-2.72c0-.017.07-.086.154-.153.139-.109.142-.106.033.034-.115.146-.187.192-.187.12zm.79-.876c0-.018.069-.087.153-.154.14-.109.142-.106.033.033-.114.147-.186.193-.186.12zm9.756-2.312c.23-.018.604-.018.834 0 .229.018.041.033-.417.033-.458 0-.646-.015-.417-.033zm-4.077-.085a.952.952 0 0 1 .351.002c.084.022-.005.04-.198.038-.193 0-.262-.019-.153-.04zm8.725.002a.719.719 0 0 1 .307 0c.085.022.016.04-.153.04-.169 0-.238-.018-.154-.04zm-10.655-.085a.339.339 0 0 1 .22 0c.06.024.01.044-.11.044-.121 0-.17-.02-.11-.044zm12.716 0a.339.339 0 0 1 .22 0c.06.024.01.044-.11.044s-.17-.02-.11-.044zm1.491-.088a.339.339 0 0 1 .22 0c.06.024.01.044-.11.044s-.17-.02-.11-.044zm1.321-.09c.064-.025.14-.022.168.008.03.029-.022.05-.115.046-.102-.004-.123-.025-.053-.053zm1.14-.087c.064-.025.14-.022.169.007.029.029-.023.05-.116.046-.102-.004-.122-.025-.053-.053zM15.4 113.059c-.109-.139-.106-.142.033-.033.146.115.193.187.12.187-.017 0-.087-.07-.153-.154zm103.235-.312c0-.015.128-.144.285-.285l.285-.258-.257.285c-.24.266-.313.325-.313.258zm1.14-1.14c0-.016.129-.144.285-.285l.285-.258-.257.285c-.24.266-.313.325-.313.258zm-107.006-1.18c-.109-.139-.106-.142.033-.033.146.115.193.187.12.187-.018 0-.087-.07-.153-.154zm10.174-5.174c-.11-.14-.106-.142.033-.033.084.066.153.135.153.153 0 .073-.072.026-.186-.12zm87.8.12c0-.018.068-.087.153-.153.139-.11.142-.106.033.033-.115.146-.187.193-.187.12zm2.367-2.368c0-.018.07-.087.153-.153.14-.11.143-.106.034.033-.115.146-.187.193-.187.12zm-92.623-.208c-.11-.139-.106-.142.033-.033.146.115.193.187.12.187-.018 0-.087-.07-.153-.154zm74.907-5.404c0-.019.07-.088.154-.154.14-.109.142-.106.033.033-.115.146-.187.193-.187.12zm-40.09-13.714c-.109-.14-.106-.143.033-.033.085.066.154.135.154.153 0 .072-.072.026-.187-.12zm-1.484-1.404l-.303-.328.33.302c.305.281.368.355.301.355-.014 0-.162-.148-.328-.329zm17.265-.783c.063-.025.139-.022.168.007.03.029-.023.05-.115.046-.102-.004-.123-.025-.053-.053zm-19.809-1.76l-.302-.329.329.302c.306.282.37.356.302.356-.014 0-.162-.148-.329-.329zM.51 78.344c.004-.103.025-.123.053-.053.026.063.022.138-.007.168-.029.029-.05-.023-.046-.115zm131.99 0c.004-.103.025-.123.053-.053.025.063.022.138-.007.168-.03.029-.05-.023-.046-.115zm-82.632-.103c-.11-.139-.106-.142.033-.033.084.066.153.135.153.154 0 .072-.072.025-.186-.12zM.422 77.38c.004-.102.025-.123.053-.053.025.063.022.139-.007.168-.03.029-.05-.023-.046-.115zm132.252-.965c.004-.102.025-.123.053-.053.025.063.022.14-.007.168-.029.03-.05-.022-.046-.115zM.334 76.326c.004-.102.025-.123.053-.053.025.064.022.14-.007.168-.03.03-.05-.022-.046-.115zm77.257.106c0-.018.07-.087.154-.153.139-.11.142-.106.033.033-.115.146-.187.192-.187.12zm55.17-1.07c.005-.102.026-.123.054-.053.025.063.022.139-.007.168-.03.029-.05-.023-.046-.115zM.254 75.15c0-.12.02-.17.044-.11a.338.338 0 0 1 0 .22c-.024.06-.044.01-.044-.11zm10.166.036c.005-.102.025-.123.053-.053.026.064.023.14-.006.168-.03.03-.05-.022-.047-.115zm48.305-.804c-.109-.139-.106-.142.034-.033.084.066.153.136.153.154 0 .072-.072.025-.187-.12zm64.128-.16c.004-.103.025-.123.053-.053.025.063.022.139-.007.168-.03.029-.05-.023-.046-.115zm9.998 0c.004-.103.025-.123.053-.053.025.063.022.139-.007.168-.03.029-.05-.023-.047-.115zm-122.518-.176c.004-.102.025-.123.053-.053.025.063.022.14-.007.168-.03.03-.05-.022-.046-.115zM.169 73.703c.001-.145.021-.194.043-.108a.502.502 0 0 1-.003.263c-.024.06-.042-.01-.04-.155zm122.77-.622c.004-.102.025-.122.053-.053.026.064.023.14-.007.169-.029.029-.05-.023-.046-.116zm9.998-.087c.004-.102.025-.123.053-.053.026.063.022.139-.007.168-.029.029-.05-.023-.046-.115zm-122.686-.388c0-.12.02-.17.044-.11a.338.338 0 0 1 0 .22c-.024.06-.044.011-.044-.11zM.084 71.905c0-.169.018-.238.04-.154a.72.72 0 0 1 0 .307c-.022.085-.04.016-.04-.153zm56.185.022c-.11-.14-.106-.142.033-.033.084.066.153.135.153.153 0 .072-.072.026-.186-.12zm66.758.014c.004-.102.025-.123.053-.053.025.064.022.14-.007.168-.029.03-.05-.022-.046-.115zm10.005-.3c0-.12.02-.17.044-.109a.339.339 0 0 1 0 .22c-.024.06-.044.01-.044-.11zm-122.86-1.008c0-.193.018-.261.04-.152.02.109.02.267-.002.35-.022.084-.04-.005-.039-.198zm112.95-.044c0-.12.02-.17.044-.11a.339.339 0 0 1 0 .22c-.024.06-.044.01-.044-.11zm10-.57c.003-.144.022-.193.045-.108a.505.505 0 0 1-.003.263c-.024.06-.043-.01-.04-.155zM.006 68.88c0-.338.016-.465.035-.283.02.182.019.458 0 .614-.02.156-.035.007-.035-.33zm123.204.132c0-.12.02-.17.045-.11a.339.339 0 0 1 0 .22c-.025.06-.045.01-.045-.11zm10.005-.965c0-.169.018-.238.04-.153a.719.719 0 0 1 0 .306c-.022.085-.04.016-.04-.153zm-9.91-1.052c0-.17.018-.238.04-.154a.719.719 0 0 1 0 .307c-.022.084-.04.015-.04-.153zm-113.21-1.097c0-.53.015-.736.033-.457.017.28.017.713 0 .965-.018.251-.033.023-.032-.508zm123.215-.745c0-.314.016-.442.036-.285.02.157.02.413 0 .57-.02.157-.036.028-.036-.285zm-34.992-.833c0-.338.017-.465.036-.283.019.182.018.458-.001.614-.02.155-.035.006-.035-.331zm-1.67-.439c.001-.241.018-.33.038-.196.02.133.02.33-.001.439-.02.107-.037-.002-.037-.243zm26.762-1.842c0-1.109.012-1.55.028-.981.015.57.015 1.477 0 2.017-.016.54-.028.074-.028-1.036zM.007 61.644c0-.41.015-.578.033-.373.019.205.019.54 0 .746-.018.205-.033.037-.033-.373zm98.208.438c0-.12.02-.17.044-.11a.339.339 0 0 1 0 .22c-.024.06-.044.01-.044-.11zm-1.667-.087c0-.121.02-.17.045-.11a.338.338 0 0 1 0 .22c-.025.06-.045.01-.045-.11zm1.572-1.104c.004-.102.025-.123.053-.053.025.063.022.139-.007.168-.029.03-.05-.022-.046-.115zM10.177 59.89c0-.314.016-.442.036-.285.02.157.02.413 0 .57-.02.157-.036.028-.036-.285zm79.627.044c0-.193.019-.262.04-.153.02.11.02.267-.002.351-.022.084-.04-.005-.038-.198zm-1.672-.176c.002-.144.022-.193.044-.108a.502.502 0 0 1-.003.263c-.024.06-.042-.01-.04-.155zm45.177-.745c0-.314.016-.442.036-.285.02.157.02.413 0 .57-.02.157-.036.028-.036-.285zm-51.852-.928c.004-.103.025-.123.053-.053.025.063.022.139-.007.168-.03.029-.05-.023-.046-.115zm-1.666-.088c.004-.102.025-.123.053-.053.025.063.022.139-.007.168-.03.03-.05-.023-.046-.115zm-79.703-.65c0-.218.017-.306.038-.198.02.109.02.286 0 .395-.021.108-.038.02-.038-.198zm123.216-.088c0-.169.018-.238.04-.154a.719.719 0 0 1 0 .307c-.022.085-.04.016-.04-.153zm-113.047-.526c0-.17.018-.238.04-.154a.72.72 0 0 1 0 .307c-.022.084-.04.015-.04-.153zm122.954-.483c.002-.144.021-.193.043-.108a.505.505 0 0 1-.003.263c-.024.06-.042-.01-.04-.155zm-10.002-.833c0-.12.02-.17.045-.11a.339.339 0 0 1 0 .22c-.025.06-.045.01-.045-.11zM.17 55.022c.001-.144.021-.193.043-.108a.502.502 0 0 1-.003.264c-.024.059-.042-.01-.04-.156zm10.17-.131c0-.12.02-.17.044-.11a.338.338 0 0 1 0 .22c-.024.06-.044.01-.044-.11zm122.78-.439c0-.12.02-.17.045-.11a.339.339 0 0 1 0 .22c-.024.06-.044.011-.044-.11zm-10.004-.402c.004-.102.025-.123.053-.053.025.064.022.14-.007.169-.03.029-.05-.023-.046-.116zm-112.689-.562c0-.12.02-.17.045-.11a.338.338 0 0 1 0 .22c-.025.06-.045.01-.045-.11zM.253 53.312c0-.12.02-.17.044-.11a.338.338 0 0 1 0 .22c-.024.06-.044.01-.044-.11zm132.772-.226c.004-.102.025-.123.053-.053.025.063.022.139-.007.168-.03.029-.05-.023-.046-.115zm-9.998-.176c.004-.102.025-.123.053-.053.025.064.022.14-.007.168-.029.03-.05-.022-.046-.115zm-112.52-.614c.004-.102.025-.123.053-.053.025.064.022.14-.007.169-.029.029-.05-.023-.046-.116zm-10.173-.35c.004-.103.025-.123.053-.053.025.063.022.139-.007.168-.03.029-.05-.023-.046-.115zm77.158-.015c-.109-.14-.106-.142.033-.033.085.066.154.135.154.153 0 .073-.072.026-.187-.12zm45.447-.073c.004-.102.025-.123.053-.053.026.063.023.139-.007.168-.029.03-.05-.023-.046-.115zm9.998 0c.004-.102.025-.123.053-.053.026.063.022.139-.007.168-.029.03-.05-.023-.046-.115zM.422 50.805c.004-.102.025-.122.053-.053.025.064.022.14-.007.169-.03.029-.05-.023-.046-.116zm132.428 0c.004-.102.025-.122.053-.053.025.064.022.14-.007.169-.03.029-.05-.023-.047-.116zM.597 48.788c.004-.102.025-.123.053-.053.025.064.022.14-.007.168-.03.03-.05-.022-.046-.115zm.088-.877c.004-.102.025-.123.053-.053.025.064.022.14-.007.168-.03.03-.05-.022-.046-.115zm80.93-2.47c-.11-.139-.107-.142.032-.033.085.066.154.135.154.153 0 .073-.072.026-.187-.12zm-52.232-3.75c0-.288.017-.396.036-.239.02.158.02.395 0 .527-.02.131-.036.002-.036-.287zm58.943-.328l-.167-.197.197.167c.109.092.198.18.198.197 0 .07-.07.018-.228-.167zm1.316-1.052l-.167-.198.197.167c.185.157.237.228.167.228-.017 0-.105-.089-.197-.197zm-2.631-.263l-.167-.198.197.167c.109.092.197.181.197.198 0 .07-.07.018-.227-.167zm.964-1.404l-.167-.197.198.167c.108.092.197.18.197.197 0 .07-.07.019-.228-.167zm-19.258.05c.063-.025.139-.022.168.007.03.03-.023.05-.115.046-.102-.004-.123-.025-.053-.053zm-36.555-2.703c.164-.168.318-.307.342-.307.024 0-.09.139-.254.307-.164.17-.317.307-.341.307-.025 0 .09-.138.253-.307zm36.73-4.05c.064-.025.14-.022.169.007.029.03-.023.05-.116.046-.102-.004-.123-.025-.053-.053zm-1.145-.086a.338.338 0 0 1 .22 0c.06.025.01.044-.11.044-.121 0-.17-.02-.11-.044zm.532-1.668c.063-.025.138-.022.168.007.029.03-.023.05-.116.046-.102-.004-.122-.025-.052-.053zm-1.848-.09c.109-.02.286-.02.395 0 .108.021.02.038-.197.038s-.306-.017-.198-.038zm-45.187-7.13c.087-.096.178-.175.202-.175.024 0-.027.08-.115.176-.087.096-.178.175-.202.175-.024 0 .027-.079.115-.175zm90.81-.679l-.479-.504.505.48c.468.445.544.528.479.528-.014 0-.24-.227-.504-.504zm-89.977-.143c0-.018.069-.087.153-.153.14-.11.142-.106.033.033-.114.146-.186.193-.186.12zm-9.209-6.139c0-.018.07-.087.154-.153.139-.11.142-.106.033.033-.115.146-.187.193-.187.12zm106.64-.822l-.303-.328.33.302c.305.281.368.355.301.355-.014 0-.162-.148-.329-.329zm-1.41-1.315c-.11-.14-.106-.142.033-.033.146.114.192.186.12.186-.018 0-.087-.069-.153-.153zm-64.29-3.24c.063-.025.139-.021.168.008.03.029-.023.05-.115.046-.102-.004-.123-.025-.053-.053zm24.205 0c.064-.025.14-.021.168.008.03.029-.022.05-.115.046-.102-.004-.123-.025-.053-.053zm-1.14-.087c.063-.025.14-.022.168.007.03.03-.022.05-.115.046-.102-.004-.123-.025-.053-.053zm-1.32-.086a.338.338 0 0 1 .218 0c.06.025.011.044-.11.044-.12 0-.17-.02-.109-.044zm-18.588-.09c.063-.025.14-.022.168.008.03.029-.022.05-.115.046-.102-.005-.123-.025-.053-.053zm16.966 0a.502.502 0 0 1 .263.003c.06.024-.01.042-.155.04-.144-.001-.193-.021-.108-.043zm-15.568-.085a.338.338 0 0 1 .22 0c.06.024.01.044-.11.044-.121 0-.17-.02-.11-.044zm13.025-.005c.133-.02.33-.02.438.001.108.021-.001.038-.242.037-.241 0-.33-.018-.196-.038zm-11.095-.087a.957.957 0 0 1 .351.002c.084.022-.005.04-.198.038-.193 0-.262-.019-.153-.04zm7.5.002a.502.502 0 0 1 .262.003c.06.024-.01.042-.155.04-.144-.002-.193-.021-.108-.044zM80.556.63c.063-.024.139-.021.168.008.029.029-.023.05-.115.046-.103-.004-.123-.025-.053-.053zM52.93.545c.063-.025.139-.022.168.007.03.03-.023.05-.115.046-.102-.004-.123-.025-.053-.053zm26.66 0c.064-.025.14-.022.169.007.03.03-.023.05-.115.046-.102-.004-.123-.025-.053-.053zM53.897.457c.063-.026.139-.023.168.006.029.03-.023.05-.115.047-.103-.005-.123-.025-.053-.053zm24.643 0c.064-.026.14-.023.169.006.029.03-.023.05-.116.047-.102-.005-.122-.025-.053-.053zM54.948.369c.063-.026.139-.022.168.007.03.029-.023.05-.115.046-.102-.004-.123-.025-.053-.053zm22.27.002a.338.338 0 0 1 .22 0c.06.024.01.044-.11.044s-.17-.02-.11-.044zM56.177.28c.063-.025.139-.022.168.007.029.03-.023.05-.115.046-.102-.004-.123-.025-.053-.053zm19.597 0a.502.502 0 0 1 .263.003c.06.024-.01.042-.155.04-.145-.002-.193-.021-.108-.044zM57.486.194a.338.338 0 0 1 .22 0c.06.025.01.044-.11.044-.121 0-.17-.02-.11-.044zM73.842.193a.72.72 0 0 1 .307 0c.084.022.015.04-.153.04-.17 0-.238-.018-.154-.04zM59.196.105a.72.72 0 0 1 .307 0c.084.022.015.04-.154.04-.168 0-.237-.018-.153-.04zM70.378.101c.205-.018.54-.018.745 0 .205.019.038.034-.372.034s-.578-.015-.373-.034zM61.785.014c.157-.02.394-.019.526.001s.003.036-.287.036-.397-.017-.24-.037zm5.304.001c.133-.02.35-.02.482 0 .133.02.025.037-.24.037-.266 0-.375-.017-.242-.037z" fill="#9d85b7"/><path d="M36.428 143.864c-2.085-.434-3.3-1.87-3.968-4.693-.142-.597-.16-1.414-.205-8.844l-.049-8.186-1.798-.593c-5.709-1.884-10.52-4.574-14.558-8.141-7.56-6.68-12.331-16.203-14.463-28.873C.247 77.758-.15 70.716.054 60.778c.126-6.206.236-8.355.632-12.333 1.253-12.587 4.467-22.168 9.93-29.6 1.488-2.024 3.434-4.141 4.97-5.407C23.542 6.888 35.09 2.698 50.23.87 55.235.265 61.956-.084 66.453.027c8.613.212 10.7.305 14.076.624 14.002 1.325 25.674 4.93 34.072 10.526 1.928 1.285 3.066 2.223 4.83 3.983 2.81 2.8 4.841 5.668 6.83 9.64 5.883 11.754 8.148 28.61 6.622 49.297-.27 3.65-.792 8.741-1.135 11.052-1.93 13.01-7.05 22.866-15.332 29.514-4.42 3.547-9.52 6.008-16.198 7.815-.989.268-2.39.656-3.113.864-4.706 1.35-12.687 2.612-19.908 3.15-4.894.365-12.568.476-16.664.24-2.517-.145-4.425-.274-4.707-.32-.21-.034-.335.08-1.14 1.033-2.02 2.393-5.131 5.994-6.57 7.607-.84.943-2.262 2.56-3.16 3.596-2.773 3.197-4.252 4.47-5.823 5.011-.9.31-1.854.383-2.705.205zm10.828-15.897A5863.015 5863.015 0 0 1 57.6 116.511l.242-.252 2.18.108c4.276.213 10.31.124 14.94-.222 6.488-.484 14.701-1.782 18.592-2.937a59.144 59.144 0 0 1 2.33-.609c5.25-1.264 8.902-2.823 12.462-5.321 2.666-1.87 5.217-4.45 7.167-7.248 3.177-4.557 5.393-10.53 6.447-17.384.378-2.45.84-6.903 1.1-10.566.474-6.705.475-13.478.002-19.294-1.13-13.892-4.99-24.567-11.054-30.57-1.895-1.875-3.867-3.223-7.043-4.812-7.491-3.747-17.144-6.083-28.469-6.887-4.087-.29-13.844-.446-17.19-.274-14.349.74-25.61 3.767-33.457 8.996-2.386 1.59-4.077 3.068-5.62 4.913-6.075 7.26-9.15 17.009-9.903 31.397-.253 4.816-.254 14.256-.002 17.978.834 12.35 3.74 21.247 9.175 28.082.873 1.098 3.6 3.827 4.688 4.692 3.446 2.74 7.597 4.883 11.945 6.17l.855.253v3.474c0 5.037.112 22.973.143 22.973.015 0 4.572-5.041 10.128-11.204zm38.097-25.944c-1.144-.252-6.62-2.668-9.867-4.352-8.72-4.525-16.051-9.84-22.713-16.47-9.245-9.199-16.666-20.306-21.096-31.572-1.016-2.583-1.666-4.51-1.97-5.832-.258-1.132-.277-1.317-.24-2.368.045-1.254.233-1.963.778-2.93 1.03-1.83 3.242-3.887 7.048-6.551 2.382-1.668 2.964-1.915 4.516-1.91 2.266.007 3.821 1.082 6.74 4.657 5.339 6.544 7.995 11.041 8.147 13.797.103 1.876-.621 2.98-3.445 5.253-2.391 1.924-2.575 2.097-2.887 2.718-.67 1.33-.758 2.546-.317 4.35 1.044 4.264 3.263 8.04 6.976 11.871 4.336 4.476 9.07 7.561 13.277 8.655.94.244 1.575.266 2.36.08 1.224-.288 1.571-.595 3.56-3.149.823-1.057 1.644-2.064 1.824-2.237 1.457-1.4 3.96-1.796 6.146-.973 1.054.397 6.267 3.742 8.266 5.304 1.812 1.415 5.815 4.783 6.246 5.255 1.618 1.77 1.763 4.19.403 6.72-1.01 1.878-2.713 4.093-4.585 5.965-1.898 1.897-3.59 2.995-5.484 3.556-1.008.299-2.723.374-3.683.163zm11.63-36.498l-.238-.242-.104-2.104c-.214-4.35-.807-7.756-1.935-11.104-2.277-6.76-6.674-12.227-12.839-15.967-4.349-2.638-9.295-4.06-14.868-4.274-1.588-.06-1.606-.064-1.84-.298a.82.82 0 0 1 .005-1.18l.242-.24 1.16.024c5.621.116 11.249 1.647 15.733 4.278 4.083 2.396 7.65 5.702 10.166 9.423 3.17 4.687 4.99 10.062 5.653 16.707.133 1.333.229 4.375.147 4.689-.144.554-.858.715-1.281.288zm-8.437-3.292c-.273-.21-.343-.493-.344-1.395-.005-4.856-1.437-9.303-4.111-12.763-3.12-4.038-7.318-6.423-12.99-7.383a24.163 24.163 0 0 0-1.754-.228c-1.272-.099-1.578-.282-1.578-.944 0-.364.296-.756.588-.778.628-.047 2.654.2 4.125.501 3.798.78 7.182 2.354 9.845 4.58 3.868 3.232 6.436 7.94 7.236 13.263.173 1.15.338 3.953.263 4.455-.078.518-.367.805-.808.802-.183-.002-.395-.051-.472-.11zM80.3 59.407c-.298-.161-.403-.457-.466-1.31-.397-5.389-3.21-8.337-8.38-8.781-.65-.056-.773-.094-.986-.307-.34-.34-.336-.793.013-1.14.306-.307.63-.328 1.979-.124 5.473.825 8.4 4.092 8.994 10.042.112 1.118.046 1.413-.363 1.625-.304.157-.495.156-.79-.005z" fill="#8061a4"/></svg>