<!-- Generated by IcoMoon.io -->
<svg version="1.1" xmlns="http://www.w3.org/2000/svg" width="64" height="64" viewBox="0 0 64 64">
<title>icon-insta2</title>
<path d="M54.857 0h-45.714c-5.029 0-9.143 4.114-9.143 9.143v45.714c0 5.029 4.114 9.143 9.143 9.143h45.714c5.029 0 9.143-4.114 9.143-9.143v-45.714c0-5.029-4.114-9.143-9.143-9.143zM32 21.333c5.882 0 10.667 4.785 10.667 10.667s-4.785 10.667-10.667 10.667-10.667-4.785-10.667-10.667 4.785-10.667 10.667-10.667zM54.857 54.857h-45.714v-27.429h3.599c-0.347 1.469-0.552 2.996-0.552 4.571 0 10.941 8.869 19.809 19.809 19.809s19.809-8.869 19.809-19.809c0-1.576-0.201-3.102-0.552-4.571h3.599v27.429zM54.857 21.333h-12.191v-12.191h12.191v12.191z"></path>
</svg>
