<svg xmlns="http://www.w3.org/2000/svg" viewBox="0 0 133.4 144"><path d="M36.4 143.9c-2-.5-3.3-2-4-4.7a68 68 0 0 1-.1-8.9v-8.2l-1.9-.6a41 41 0 0 1-14.6-8 47.3 47.3 0 0 1-14.4-29C.2 77.8-.1 70.7 0 60.8c0-6.2.2-8.4.6-12.4a58.4 58.4 0 0 1 10-29.6c1.4-2 3.4-4.1 4.9-5.4A67 67 0 0 1 50.2 1 180.3 180.3 0 0 1 80.5.7c14 1.3 25.7 4.9 34.1 10.5a34.7 34.7 0 0 1 11.7 13.6c5.8 11.8 8.1 28.6 6.6 49.3a195 195 0 0 1-1.2 11c-1.9 13-7 23-15.3 29.6a43 43 0 0 1-16.2 7.8l-3.1.8c-4.7 1.4-12.7 2.7-19.9 3.2a157 157 0 0 1-21.4 0A477.7 477.7 0 0 1 45 138.6c-2.7 3.1-4.2 4.4-5.8 5-.9.3-1.8.3-2.7.2zm10.9-16a5863 5863 0 0 1 10.3-11.4l.2-.2H60a109.7 109.7 0 0 0 33.5-3.2 59.1 59.1 0 0 1 2.4-.5 30 30 0 0 0 19.6-12.6 41.5 41.5 0 0 0 6.5-17.4 153.8 153.8 0 0 0 1-29.8c-1-14-5-24.6-11-30.6a25.3 25.3 0 0 0-7-4.8c-7.5-3.7-17.2-6-28.5-6.9-4-.3-13.8-.4-17.2-.3a66.8 66.8 0 0 0-33.5 9 25 25 0 0 0-5.6 5c-6 7.2-9.1 17-9.9 31.3a213 213 0 0 0 0 18 48.5 48.5 0 0 0 9.2 28.1 35.7 35.7 0 0 0 16.6 10.9l.9.2v3.5l.1 23L47.3 128zm38-25.9a90.6 90.6 0 0 1-32.6-20.8 94.2 94.2 0 0 1-23-37.4 6.7 6.7 0 0 1-.2-2.4c0-1.2.2-2 .7-2.9a25 25 0 0 1 7-6.6c2.5-1.6 3-1.9 4.6-1.9 2.3 0 3.8 1.1 6.7 4.7 5.4 6.5 8 11 8.2 13.8.1 1.9-.6 3-3.4 5.2-2.4 2-2.6 2.1-3 2.8a6.2 6.2 0 0 0-.3 4.3c1 4.3 3.3 8 7 11.9 4.4 4.5 9 7.5 13.3 8.6a4 4 0 0 0 2.4.1c1.2-.3 1.5-.6 3.5-3.1.8-1 1.7-2 1.8-2.3 1.5-1.4 4-1.8 6.2-1a67.7 67.7 0 0 1 14.5 10.6c1.6 1.8 1.8 4.2.4 6.7-1 2-2.7 4.1-4.6 6-1.9 1.9-3.6 3-5.5 3.6a9 9 0 0 1-3.6.1zM97 65.5l-.3-.2v-2.1c-.3-4.4-.9-7.8-2-11.1A29.3 29.3 0 0 0 67 31.8c-1.6 0-1.6 0-1.8-.3a.8.8 0 0 1 0-1.1l.2-.3h1.2a31.8 31.8 0 0 1 31.6 30.4v4.7c0 .6-.8.8-1.2.3zm-8.5-3.3c-.2-.2-.3-.5-.3-1.4 0-4.8-1.4-9.3-4.1-12.7-3.1-4-7.3-6.4-13-7.4a24.2 24.2 0 0 0-1.8-.2c-1.2-.1-1.5-.3-1.5-1 0-.3.3-.7.6-.8a22.3 22.3 0 0 1 14 5 22.2 22.2 0 0 1 7.4 17.8c0 .6-.3.8-.8.8a1 1 0 0 1-.5 0zm-8.2-2.8c-.3-.2-.4-.5-.5-1.3-.4-5.4-3.2-8.3-8.3-8.8-.7 0-.8 0-1-.3-.4-.3-.4-.8 0-1.1.3-.3.6-.4 2-.2 5.4.9 8.4 4.1 9 10 0 1.2 0 1.5-.4 1.7-.3.2-.5.2-.8 0z"/></svg>