<svg xmlns="http://www.w3.org/2000/svg" width="348" height="269" fill-rule="evenodd" clip-rule="evenodd" image-rendering="optimizeQuality" shape-rendering="geometricPrecision" text-rendering="geometricPrecision" version="1" viewBox="0 0 9495 7335"><path d="M5980 6112a611 611 0 1 0 0 1222 611 611 0 0 0 0-1222zm-3374 0a612 612 0 1 0 1 1223 612 612 0 0 0-1-1223zM9495 0l-303 815h-786L7166 5097c-135 456-346 608-911 608H2223c-516 0-681-119-852-539L43 1963a533 533 0 0 1 479-741h6044l-230 815H941l1197 2852h4249L7622 578c96-392 352-579 801-579h1072z"/></svg>