<!-- Generated by IcoMoon.io -->
<svg version="1.1" xmlns="http://www.w3.org/2000/svg" width="64" height="64" viewBox="0 0 64 64">
<title>icon-insta</title>
<path d="M46.338 0h-28.676c-9.738 0-17.661 7.923-17.661 17.662v28.676c0 9.739 7.923 17.662 17.661 17.662h28.676c9.739 0 17.662-7.923 17.662-17.662v-28.676c0-9.738-7.923-17.662-17.662-17.662zM58.322 46.338c0 6.608-5.376 11.983-11.984 11.983h-28.677c-6.607 0-11.983-5.376-11.983-11.983v-28.676c0-6.607 5.375-11.983 11.983-11.983h28.676c6.608 0 11.984 5.376 11.984 11.983v28.676z"></path>
<path d="M32 15.51c-9.093 0-16.491 7.398-16.491 16.491s7.398 16.49 16.491 16.49 16.491-7.397 16.491-16.49c0-9.093-7.398-16.491-16.491-16.491zM32 42.812c-5.962 0-10.813-4.85-10.813-10.812s4.85-10.813 10.813-10.813 10.813 4.85 10.813 10.813c0 5.962-4.851 10.812-10.813 10.812z"></path>
<path d="M49.182 10.695c-1.094 0-2.169 0.443-2.941 1.219-0.776 0.772-1.223 1.847-1.223 2.945 0 1.094 0.447 2.169 1.223 2.945 0.772 0.772 1.847 1.219 2.941 1.219 1.098 0 2.169-0.447 2.945-1.219 0.776-0.776 1.219-1.851 1.219-2.945 0-1.098-0.443-2.173-1.219-2.945-0.772-0.776-1.847-1.219-2.945-1.219z"></path>
</svg>
