<!-- Generated by IcoMoon.io -->
<svg version="1.1" xmlns="http://www.w3.org/2000/svg" width="64" height="64" viewBox="0 0 64 64">
<title>icon-viber</title>
<path d="M31.179 0.005c-1.897 0.011-3.799 0.125-5.717 0.359-3.668 0.451-7.304 1.201-10.793 2.804-5.548 2.549-9.483 6.874-10.624 13.162-0.484 2.652-0.875 5.342-1.098 8.048-0.429 5.255-0.163 10.526 1.326 15.705 1.174 4.081 3.337 7.749 7.124 10.13 1.603 1.005 3.717 1.494 4.82 2.005 0.31 0.147 0.386 0.234 0.402 0.255 0.016 0.016 0.060 0.054 0.054 0.38-0.038 3.326 0 9.76 0 9.76l0.005 1.386h2.483l0.402-0.391c0 0 6.309-6.070 8.592-8.57 0.413-0.446 0.625-0.696 0.668-0.723 0.038-0.027-0.027-0.044 0.397-0.054 2.994-0.060 5.983-0.174 8.972-0.337 3.94-0.217 7.956-0.592 11.82-2.206 3.364-1.407 6.173-3.706 7.874-7.152 1.739-3.532 2.668-7.277 3.016-11.151 0.576-6.451 0.375-12.912-1.407-19.281-1.049-3.733-3.157-6.891-6.391-9.119-3.869-2.663-8.233-3.663-12.504-4.299-2.494-0.37-5.005-0.614-7.527-0.69-0.63-0.016-1.261-0.027-1.897-0.022zM33 2.809c2.397 0.065 4.793 0.299 7.195 0.658 4.119 0.614 8.005 1.549 11.336 3.842 2.701 1.859 4.386 4.369 5.288 7.57 1.663 5.956 1.875 12.059 1.315 18.292-0.321 3.592-1.174 6.978-2.744 10.168-1.386 2.815-3.549 4.603-6.451 5.815-3.369 1.407-7.032 1.782-10.89 1.994-2.956 0.163-5.918 0.272-8.88 0.331-0.744 0.016-1.473 0.212-1.989 0.592s-0.75 0.734-1.071 1.081c-1.63 1.782-4.88 4.918-6.652 6.635-0.011-2.076-0.027-4.587 0-6.902 0.011-0.712-0.152-1.44-0.56-2.016s-0.967-0.924-1.505-1.174c-1.57-0.728-3.625-1.282-4.516-1.842-3.114-1.956-4.88-4.891-5.929-8.543-1.375-4.777-1.636-9.695-1.228-14.7 0.217-2.598 0.592-5.201 1.065-7.782 0.989-5.44 4.098-8.863 9.043-11.135 3.125-1.435 6.461-2.141 9.977-2.57 2.397-0.293 4.793-0.386 7.195-0.315zM33.587 9.744c-1.147 0-2.261 0.13-3.342 0.37-0.744 0.174-1.217 0.918-1.049 1.668s0.918 1.217 1.668 1.049c0.875-0.201 1.788-0.304 2.723-0.304 6.793 0 12.271 5.478 12.271 12.265 0 0.94-0.103 1.853-0.304 2.733-0.168 0.744 0.299 1.494 1.049 1.663s1.494-0.304 1.663-1.054c0.245-1.076 0.375-2.19 0.375-3.342 0-8.293-6.755-15.048-15.053-15.048zM19.708 12.531c-0.228-0.011-0.462 0.005-0.706 0.060-2.527 0.56-5.038 2.391-5.108 5.663 0.071 0.456 0.065 0.946 0.234 1.359 0.826 2.022 1.543 4.108 2.576 6.021 5.027 9.293 12.629 15.754 22.319 19.857 1.157 0.489 2.353 0.592 3.521 0.103 1.609-0.668 2.973-1.701 3.88-3.184 1.244-2.038 1.261-3.451-0.788-4.956-1.342-0.989-2.663-2.005-4.021-2.973-2.071-1.467-4.309-1.723-5.853 0.853-0.081 0.13-0.201 0.239-0.304 0.348-0.793 0.842-1.766 1.049-2.799 0.625-3.918-1.614-6.945-4.217-8.771-8.092-1.076-2.277-0.783-3.418 1.228-4.934 0.201-0.147 0.391-0.304 0.576-0.473 0.88-0.804 1.114-1.761 0.592-2.842-1.179-2.467-2.75-4.668-4.739-6.565-0.538-0.511-1.152-0.831-1.837-0.87zM33.565 13.917c-0.614 0-1.223 0.049-1.82 0.152-0.505 0.065-0.935 0.402-1.119 0.875-0.185 0.478-0.092 1.016 0.234 1.408 0.331 0.386 0.853 0.565 1.353 0.456 0.435-0.071 0.891-0.109 1.353-0.109 4.521 0 8.151 3.63 8.151 8.152 0 0.462-0.038 0.918-0.109 1.353-0.109 0.5 0.071 1.022 0.456 1.353 0.391 0.326 0.929 0.418 1.407 0.234 0.473-0.185 0.81-0.614 0.875-1.119 0.103-0.598 0.152-1.206 0.152-1.82 0-6.021-4.913-10.934-10.934-10.934zM33.37 18.091c-0.5-0.005-0.967 0.255-1.223 0.69-0.25 0.435-0.25 0.967 0 1.402 0.255 0.435 0.723 0.696 1.223 0.69 2.32 0 4.174 1.853 4.174 4.174-0.005 0.5 0.255 0.967 0.69 1.223 0.435 0.25 0.967 0.25 1.402 0 0.435-0.255 0.696-0.723 0.69-1.223 0-3.826-3.13-6.956-6.956-6.956z"></path>
</svg>
