<!-- Generated by IcoMoon.io -->
<svg version="1.1" xmlns="http://www.w3.org/2000/svg" width="64" height="64" viewBox="0 0 64 64">
<title>icon-phone</title>
<path d="M64 50.545q0 1.227-0.455 3.205t-0.955 3.114q-0.955 2.273-5.545 4.818-4.273 2.318-8.455 2.318-1.227 0-2.386-0.159t-2.614-0.568-2.159-0.659-2.523-0.932-2.227-0.818q-4.455-1.591-7.955-3.773-5.818-3.591-12.023-9.795t-9.795-12.023q-2.182-3.5-3.773-7.955-0.136-0.409-0.818-2.227t-0.932-2.523-0.659-2.159-0.568-2.613-0.159-2.386q0-4.182 2.318-8.455 2.545-4.591 4.818-5.545 1.136-0.5 3.114-0.955t3.205-0.455q0.636 0 0.955 0.136 0.818 0.273 2.409 3.455 0.5 0.863 1.363 2.455t1.591 2.886 1.409 2.432q0.136 0.182 0.795 1.136t0.977 1.614 0.318 1.295q0 0.909-1.295 2.273t-2.818 2.5-2.818 2.409-1.295 2.091q0 0.409 0.227 1.023t0.386 0.932 0.636 1.091 0.523 0.863q3.455 6.227 7.909 10.682t10.682 7.909q0.091 0.045 0.864 0.523t1.091 0.636 0.932 0.386 1.023 0.227q0.818 0 2.091-1.295t2.409-2.818 2.5-2.818 2.273-1.295q0.636 0 1.295 0.318t1.614 0.977 1.136 0.795q1.136 0.682 2.432 1.409t2.886 1.591 2.455 1.364q3.182 1.591 3.455 2.409 0.136 0.318 0.136 0.955z"></path>
</svg>
