<svg xmlns="http://www.w3.org/2000/svg"><symbol id="icon-email" viewBox="0 0 64 64">
<title>icon-email</title>
<path d="M60 6h-56c-2.208 0-4 1.792-4 4v44c0 2.21 1.792 4 4 4h56c2.21 0 4-1.79 4-4v-44c0-2.208-1.79-4-4-4zM58 52h-52v-30.598l23.428 19.66c0.746 0.624 1.66 0.938 2.572 0.938 0.914 0 1.826-0.314 2.572-0.938l23.428-19.66v30.598zM58 13.57l-26 21.816-26-21.816v-1.57h52v1.57z"/>
</symbol><symbol id="icon-fb" viewBox="0 0 64 64">
<title>icon-fb</title>
<path d="M32 0c-17.674 0-32 14.326-32 32s14.326 32 32 32c17.674 0 32-14.326 32-32s-14.326-32-32-32zM32 59c-14.912 0-27-12.088-27-27s12.088-27 27-27 27 12.088 27 27-12.088 27-27 27z"/>
<path d="M39.594 27.102h-5.566v-4.063c0-1.246 1.289-1.535 1.891-1.535 0.598 0 3.596 0 3.596 0v-5.482l-4.121-0.021c-5.623 0-6.906 4.088-6.906 6.709v4.393h-4.080v5.648h4.080c0 7.252 0 15.25 0 15.25h5.541c0 0 0-8.080 0-15.25h4.707l0.859-5.648z"/>
</symbol><symbol id="icon-fb2" viewBox="0 0 64 64">
<title>icon-fb2</title>
<path d="M49.455 11.636v-11.636h-11.636c-6.426 0-11.636 5.21-11.636 11.636v11.636h-11.636v11.636h11.636v29.091h11.636v-29.091h11.636v-11.636h-11.636v-11.636h11.636z"/>
</symbol><symbol id="icon-insta" viewBox="0 0 64 64">
<title>icon-insta</title>
<path d="M46.338 0h-28.676c-9.738 0-17.661 7.923-17.661 17.662v28.676c0 9.739 7.923 17.662 17.661 17.662h28.676c9.739 0 17.662-7.923 17.662-17.662v-28.676c0-9.738-7.923-17.662-17.662-17.662zM58.322 46.338c0 6.608-5.376 11.983-11.984 11.983h-28.677c-6.607 0-11.983-5.376-11.983-11.983v-28.676c0-6.607 5.375-11.983 11.983-11.983h28.676c6.608 0 11.984 5.376 11.984 11.983v28.676z"/>
<path d="M32 15.51c-9.093 0-16.491 7.398-16.491 16.491s7.398 16.49 16.491 16.49 16.491-7.397 16.491-16.49c0-9.093-7.398-16.491-16.491-16.491zM32 42.812c-5.962 0-10.813-4.85-10.813-10.812s4.85-10.813 10.813-10.813 10.813 4.85 10.813 10.813c0 5.962-4.851 10.812-10.813 10.812z"/>
<path d="M49.182 10.695c-1.094 0-2.169 0.443-2.941 1.219-0.776 0.772-1.223 1.847-1.223 2.945 0 1.094 0.447 2.169 1.223 2.945 0.772 0.772 1.847 1.219 2.941 1.219 1.098 0 2.169-0.447 2.945-1.219 0.776-0.776 1.219-1.851 1.219-2.945 0-1.098-0.443-2.173-1.219-2.945-0.772-0.776-1.847-1.219-2.945-1.219z"/>
</symbol><symbol id="icon-insta2" viewBox="0 0 64 64">
<title>icon-insta2</title>
<path d="M54.857 0h-45.714c-5.029 0-9.143 4.114-9.143 9.143v45.714c0 5.029 4.114 9.143 9.143 9.143h45.714c5.029 0 9.143-4.114 9.143-9.143v-45.714c0-5.029-4.114-9.143-9.143-9.143zM32 21.333c5.882 0 10.667 4.785 10.667 10.667s-4.785 10.667-10.667 10.667-10.667-4.785-10.667-10.667 4.785-10.667 10.667-10.667zM54.857 54.857h-45.714v-27.429h3.599c-0.347 1.469-0.552 2.996-0.552 4.571 0 10.941 8.869 19.809 19.809 19.809s19.809-8.869 19.809-19.809c0-1.576-0.201-3.102-0.552-4.571h3.599v27.429zM54.857 21.333h-12.191v-12.191h12.191v12.191z"/>
</symbol><symbol id="icon-phone" viewBox="0 0 64 64">
<title>icon-phone</title>
<path d="M64 50.545q0 1.227-0.455 3.205t-0.955 3.114q-0.955 2.273-5.545 4.818-4.273 2.318-8.455 2.318-1.227 0-2.386-0.159t-2.614-0.568-2.159-0.659-2.523-0.932-2.227-0.818q-4.455-1.591-7.955-3.773-5.818-3.591-12.023-9.795t-9.795-12.023q-2.182-3.5-3.773-7.955-0.136-0.409-0.818-2.227t-0.932-2.523-0.659-2.159-0.568-2.613-0.159-2.386q0-4.182 2.318-8.455 2.545-4.591 4.818-5.545 1.136-0.5 3.114-0.955t3.205-0.455q0.636 0 0.955 0.136 0.818 0.273 2.409 3.455 0.5 0.863 1.363 2.455t1.591 2.886 1.409 2.432q0.136 0.182 0.795 1.136t0.977 1.614 0.318 1.295q0 0.909-1.295 2.273t-2.818 2.5-2.818 2.409-1.295 2.091q0 0.409 0.227 1.023t0.386 0.932 0.636 1.091 0.523 0.863q3.455 6.227 7.909 10.682t10.682 7.909q0.091 0.045 0.864 0.523t1.091 0.636 0.932 0.386 1.023 0.227q0.818 0 2.091-1.295t2.409-2.818 2.5-2.818 2.273-1.295q0.636 0 1.295 0.318t1.614 0.977 1.136 0.795q1.136 0.682 2.432 1.409t2.886 1.591 2.455 1.364q3.182 1.591 3.455 2.409 0.136 0.318 0.136 0.955z"/>
</symbol><symbol id="icon-viber" viewBox="0 0 64 64">
<title>icon-viber</title>
<path d="M31.179 0.005c-1.897 0.011-3.799 0.125-5.717 0.359-3.668 0.451-7.304 1.201-10.793 2.804-5.548 2.549-9.483 6.874-10.624 13.162-0.484 2.652-0.875 5.342-1.098 8.048-0.429 5.255-0.163 10.526 1.326 15.705 1.174 4.081 3.337 7.749 7.124 10.13 1.603 1.005 3.717 1.494 4.82 2.005 0.31 0.147 0.386 0.234 0.402 0.255 0.016 0.016 0.060 0.054 0.054 0.38-0.038 3.326 0 9.76 0 9.76l0.005 1.386h2.483l0.402-0.391c0 0 6.309-6.070 8.592-8.57 0.413-0.446 0.625-0.696 0.668-0.723 0.038-0.027-0.027-0.044 0.397-0.054 2.994-0.060 5.983-0.174 8.972-0.337 3.94-0.217 7.956-0.592 11.82-2.206 3.364-1.407 6.173-3.706 7.874-7.152 1.739-3.532 2.668-7.277 3.016-11.151 0.576-6.451 0.375-12.912-1.407-19.281-1.049-3.733-3.157-6.891-6.391-9.119-3.869-2.663-8.233-3.663-12.504-4.299-2.494-0.37-5.005-0.614-7.527-0.69-0.63-0.016-1.261-0.027-1.897-0.022zM33 2.809c2.397 0.065 4.793 0.299 7.195 0.658 4.119 0.614 8.005 1.549 11.336 3.842 2.701 1.859 4.386 4.369 5.288 7.57 1.663 5.956 1.875 12.059 1.315 18.292-0.321 3.592-1.174 6.978-2.744 10.168-1.386 2.815-3.549 4.603-6.451 5.815-3.369 1.407-7.032 1.782-10.89 1.994-2.956 0.163-5.918 0.272-8.88 0.331-0.744 0.016-1.473 0.212-1.989 0.592s-0.75 0.734-1.071 1.081c-1.63 1.782-4.88 4.918-6.652 6.635-0.011-2.076-0.027-4.587 0-6.902 0.011-0.712-0.152-1.44-0.56-2.016s-0.967-0.924-1.505-1.174c-1.57-0.728-3.625-1.282-4.516-1.842-3.114-1.956-4.88-4.891-5.929-8.543-1.375-4.777-1.636-9.695-1.228-14.7 0.217-2.598 0.592-5.201 1.065-7.782 0.989-5.44 4.098-8.863 9.043-11.135 3.125-1.435 6.461-2.141 9.977-2.57 2.397-0.293 4.793-0.386 7.195-0.315zM33.587 9.744c-1.147 0-2.261 0.13-3.342 0.37-0.744 0.174-1.217 0.918-1.049 1.668s0.918 1.217 1.668 1.049c0.875-0.201 1.788-0.304 2.723-0.304 6.793 0 12.271 5.478 12.271 12.265 0 0.94-0.103 1.853-0.304 2.733-0.168 0.744 0.299 1.494 1.049 1.663s1.494-0.304 1.663-1.054c0.245-1.076 0.375-2.19 0.375-3.342 0-8.293-6.755-15.048-15.053-15.048zM19.708 12.531c-0.228-0.011-0.462 0.005-0.706 0.060-2.527 0.56-5.038 2.391-5.108 5.663 0.071 0.456 0.065 0.946 0.234 1.359 0.826 2.022 1.543 4.108 2.576 6.021 5.027 9.293 12.629 15.754 22.319 19.857 1.157 0.489 2.353 0.592 3.521 0.103 1.609-0.668 2.973-1.701 3.88-3.184 1.244-2.038 1.261-3.451-0.788-4.956-1.342-0.989-2.663-2.005-4.021-2.973-2.071-1.467-4.309-1.723-5.853 0.853-0.081 0.13-0.201 0.239-0.304 0.348-0.793 0.842-1.766 1.049-2.799 0.625-3.918-1.614-6.945-4.217-8.771-8.092-1.076-2.277-0.783-3.418 1.228-4.934 0.201-0.147 0.391-0.304 0.576-0.473 0.88-0.804 1.114-1.761 0.592-2.842-1.179-2.467-2.75-4.668-4.739-6.565-0.538-0.511-1.152-0.831-1.837-0.87zM33.565 13.917c-0.614 0-1.223 0.049-1.82 0.152-0.505 0.065-0.935 0.402-1.119 0.875-0.185 0.478-0.092 1.016 0.234 1.408 0.331 0.386 0.853 0.565 1.353 0.456 0.435-0.071 0.891-0.109 1.353-0.109 4.521 0 8.151 3.63 8.151 8.152 0 0.462-0.038 0.918-0.109 1.353-0.109 0.5 0.071 1.022 0.456 1.353 0.391 0.326 0.929 0.418 1.407 0.234 0.473-0.185 0.81-0.614 0.875-1.119 0.103-0.598 0.152-1.206 0.152-1.82 0-6.021-4.913-10.934-10.934-10.934zM33.37 18.091c-0.5-0.005-0.967 0.255-1.223 0.69-0.25 0.435-0.25 0.967 0 1.402 0.255 0.435 0.723 0.696 1.223 0.69 2.32 0 4.174 1.853 4.174 4.174-0.005 0.5 0.255 0.967 0.69 1.223 0.435 0.25 0.967 0.25 1.402 0 0.435-0.255 0.696-0.723 0.69-1.223 0-3.826-3.13-6.956-6.956-6.956z"/>
</symbol><symbol id="icon-vk" viewBox="0 0 64 64">
<title>icon-vk</title>
<path d="M32 0c-17.675 0-32 14.325-32 32s14.325 32 32 32c17.675 0 32-14.325 32-32s-14.325-32-32-32zM32 59.001c-14.911 0-27.001-12.090-27.001-27.001s12.090-27.001 27.001-27.001c14.911 0 27.001 12.090 27.001 27.001s-12.090 27.001-27.001 27.001z"/>
<path d="M46.675 42.432c-0.179 0.024-0.364 0.052-0.548 0.052-1.791 0.005-3.586 0-5.377 0.005-0.25 0-0.458-0.090-0.647-0.241-0.373-0.307-0.761-0.605-1.106-0.945-0.898-0.888-1.772-1.805-2.66-2.702-0.279-0.279-0.572-0.539-0.865-0.803-0.151-0.142-0.34-0.175-0.539-0.17-0.265 0.005-0.477 0.123-0.581 0.368-0.095 0.217-0.175 0.458-0.198 0.694-0.042 0.425-0.047 0.855-0.052 1.28-0.009 0.477-0.024 0.954-0.156 1.422-0.061 0.203-0.147 0.411-0.25 0.595-0.184 0.317-0.477 0.491-0.846 0.501-1.564 0.038-3.132 0.057-4.692-0.042-0.288-0.024-0.557-0.113-0.813-0.241-1.46-0.718-2.74-1.668-3.851-2.854-1.356-1.441-2.584-2.986-3.813-4.536-1.654-2.084-3.085-4.314-4.37-6.643-0.473-0.846-0.926-1.706-1.261-2.622-0.165-0.449-0.165-0.902-0.043-1.356 0.038-0.137 0.099-0.265 0.175-0.387 0.104-0.175 0.269-0.269 0.482-0.274 0.076 0 0.151-0.005 0.227-0.005 1.625 0 3.251 0.005 4.876-0.005 0.321-0.005 0.567 0.104 0.784 0.321 0.402 0.402 0.713 0.869 0.992 1.351 0.307 0.529 0.61 1.063 0.879 1.611 0.591 1.205 1.313 2.334 2.084 3.43 0.373 0.534 0.78 1.049 1.167 1.573 0.18 0.246 0.43 0.335 0.718 0.345 0.279 0.009 0.397-0.104 0.406-0.387 0.005-0.066 0-0.132 0-0.203 0-1.833 0-3.666 0-5.5 0-0.142 0-0.288-0.014-0.43-0.033-0.326-0.208-0.52-0.529-0.581-0.146-0.028-0.298-0.043-0.444-0.061-0.458-0.061-0.647-0.255-0.695-0.713-0.071-0.695 0.26-1.233 0.912-1.479 0.279-0.104 0.567-0.128 0.865-0.128 1.451 0 2.896 0 4.347 0 0.293 0 0.586-0.014 0.879 0.009 0.307 0.028 0.614 0.071 0.912 0.156 0.633 0.184 1.002 0.614 1.073 1.276 0.019 0.161 0.024 0.317 0.024 0.477 0 1.115 0 2.225 0 3.34 0 1.181 0 2.362 0 3.544 0 0.113 0.009 0.236 0.042 0.345 0.104 0.359 0.491 0.477 0.822 0.25 0.964-0.666 1.597-1.592 2.088-2.622 0.449-0.954 0.841-1.932 1.261-2.901 0.34-0.765 0.685-1.526 1.039-2.282 0.085-0.189 0.213-0.359 0.331-0.529 0.109-0.156 0.25-0.222 0.449-0.222 2.102 0.005 4.2 0.005 6.303 0.005 0.515 0 0.921 0.208 1.243 0.6 0.113 0.142 0.161 0.302 0.189 0.482 0.123 0.827-0.161 1.55-0.553 2.244-0.373 0.657-0.822 1.262-1.309 1.838-1.006 1.191-1.994 2.395-2.854 3.695-0.222 0.335-0.411 0.69-0.614 1.035-0.151 0.25-0.128 0.496 0.057 0.723 0.378 0.458 0.747 0.926 1.148 1.365 0.95 1.039 1.923 2.055 2.877 3.090 0.307 0.335 0.581 0.69 0.865 1.044 0.095 0.118 0.165 0.25 0.255 0.373 0.713 0.921-0.175 2.301-1.073 2.419z"/>
</symbol><symbol id="icon-vk2" viewBox="0 0 64 64">
<title>icon-vk2</title>
<path d="M38.867 41.448c2.289-0.74 5.219 4.884 8.338 7.036 2.341 1.63 4.135 1.278 4.135 1.278l8.315-0.12s4.345-0.268 2.291-3.72c-0.17-0.287-1.204-2.559-6.189-7.235-5.212-4.891-4.506-4.099 1.769-12.554 3.823-5.154 5.353-8.303 4.874-9.643-0.46-1.29-3.268-0.955-3.268-0.955l-9.368 0.065c-0.912 0.002-1.685 0.285-2.037 1.233-0.007 0.010-1.487 3.988-3.459 7.371-4.168 7.156-5.832 7.536-6.521 7.089-1.582-1.037-1.183-4.158-1.183-6.378 0-6.936 1.034-9.828-2.025-10.575-1.022-0.249-1.769-0.412-4.376-0.436-3.332-0.050-6.162 0-7.766 0.788-1.065 0.534-1.882 1.705-1.386 1.772 0.622 0.084 2.018 0.383 2.765 1.403 0.96 1.322 0.931 4.283 0.931 4.283s0.548 8.166-1.293 9.179c-1.264 0.694-2.993-0.723-6.71-7.22-1.898-3.323-3.332-6.995-3.332-6.995s-0.278-0.682-0.78-1.056c-0.598-0.443-1.436-0.584-1.436-0.584l-8.892 0.057s-1.336 0.038-1.827 0.627c-0.436 0.522-0.036 1.599-0.036 1.599s6.964 16.473 14.85 24.771c7.23 7.618 15.446 7.113 15.446 7.113h3.723s1.123-0.129 1.697-0.747c0.536-0.575 0.512-1.654 0.512-1.654s-0.074-5.049 2.238-5.791z"/>
</symbol><symbol id="icon-whatsapp" viewBox="0 0 64 64">
<title>icon-whatsapp</title>
<path d="M0.151 64l4.499-16.435c-2.776-4.811-4.235-10.264-4.232-15.856 0.008-17.483 14.235-31.709 31.715-31.709 8.483 0.003 16.445 3.307 22.435 9.301 5.987 5.995 9.283 13.963 9.28 22.437-0.008 17.485-14.235 31.712-31.715 31.712-5.307-0.003-10.536-1.333-15.168-3.861l-16.813 4.411zM17.743 53.848c4.469 2.653 8.736 4.243 14.379 4.245 14.528 0 26.363-11.824 26.371-26.36 0.005-14.565-11.773-26.373-26.349-26.379-14.539 0-26.365 11.824-26.371 26.357-0.003 5.933 1.736 10.376 4.656 15.024l-2.664 9.728 9.979-2.616zM48.108 39.277c-0.197-0.331-0.725-0.528-1.52-0.925-0.792-0.397-4.688-2.315-5.416-2.579-0.725-0.264-1.253-0.397-1.784 0.397-0.528 0.792-2.048 2.579-2.509 3.107s-0.925 0.595-1.717 0.197c-0.792-0.397-3.347-1.232-6.373-3.933-2.355-2.101-3.947-4.696-4.408-5.491-0.461-0.792-0.048-1.221 0.347-1.616 0.357-0.355 0.792-0.925 1.189-1.389 0.403-0.459 0.533-0.789 0.8-1.32 0.264-0.528 0.133-0.992-0.067-1.389-0.2-0.395-1.784-4.296-2.443-5.883-0.645-1.544-1.299-1.336-1.784-1.36l-1.52-0.027c-0.528 0-1.387 0.197-2.112 0.992s-2.773 2.709-2.773 6.611 2.84 7.669 3.235 8.197c0.397 0.528 5.587 8.533 13.536 11.965 1.891 0.816 3.368 1.304 4.517 1.669 1.899 0.603 3.627 0.517 4.992 0.315 1.523-0.227 4.688-1.917 5.349-3.768 0.661-1.853 0.661-3.44 0.461-3.771z"/>
</symbol></svg>